<svg width="34" height="34" viewBox="0 0 34 34" fill="none" xmlns="http://www.w3.org/2000/svg">
<path d="M21.3655 17.2674C21.4477 17.2461 21.5087 17.2674 21.5669 17.3269L26.2726 22.0327L30.8052 22.1007L33.9338 25.1988C34.0586 26.7938 33.9508 28.4201 33.9891 30.0265C33.9565 30.5223 33.4062 30.7248 33.0318 30.4146L29.1941 26.6111C29.0438 26.5658 28.1049 26.5729 27.9716 26.6338C27.8851 26.6734 26.6668 27.8988 26.6399 27.9908C26.5945 28.141 26.6016 29.0788 26.6626 29.2119L30.4804 33.0353C30.7513 33.5141 30.5329 33.905 29.9911 33.9546C28.5077 34.0906 26.7831 33.8725 25.277 33.9192L22.1483 30.8212C22.0009 29.3097 22.1767 27.7642 22.0576 26.2442L17.3477 21.544L17.2782 21.3995L21.3655 17.2702V17.2674Z" fill="white"/>
<path d="M31.5622 0.0208093C31.8445 -0.0358536 31.9381 0.025059 32.148 0.180882C32.3579 0.336705 33.9137 1.92468 33.9562 2.05217C33.9832 2.13433 33.9988 2.21508 33.9931 2.30149C33.0925 4.32152 32.0232 6.28347 31.0474 8.27518C30.9595 8.39558 30.839 8.46358 30.6929 8.48625C30.1866 8.56557 28.8393 8.36159 28.4989 8.55707L15.905 21.1518L15.7604 21.2212C14.7194 20.2948 13.6798 19.2564 12.7495 18.2138L12.7849 18.109L25.427 5.48878C25.6653 4.94057 25.2596 3.35542 25.6695 2.97295L31.5622 0.0208093Z" fill="white"/>
<path d="M3.81073 0.020669L8.71922 0.0376679L11.8478 3.13571C11.9953 4.64719 11.8195 6.19267 11.9386 7.71266L16.6485 12.4128L16.718 12.5573L12.6789 16.6611L12.574 16.6966L12.4293 16.6271L7.72362 11.9213L3.19097 11.8533L0.0623609 8.75525C-0.0624431 7.16019 0.0453421 5.53397 0.00705001 3.92758C0.0396692 3.43178 0.589941 3.22921 0.964353 3.53943L4.80208 7.34293C4.95241 7.38826 5.89127 7.38118 6.02459 7.32027C6.1111 7.2806 7.32936 6.05527 7.3563 5.96319C7.41161 5.77479 7.39601 4.86251 7.30383 4.70102L3.48596 0.880528C3.29308 0.541968 3.43349 0.132578 3.81073 0.020669Z" fill="white"/>
<path d="M8.25562 20.3723L13.5995 25.71L6.48851 32.8183C2.55577 36.1855 -2.14707 31.3975 1.06947 27.5459L8.25704 20.3709L8.25562 20.3723Z" fill="white"/>
<path d="M10.6073 18.1218C10.8314 18.0722 11.0342 18.1175 11.1945 18.2833L15.8108 22.9339C16.1044 23.6436 14.7854 24.366 14.4138 24.8944L9.06995 19.5568C9.43018 19.3004 10.2442 18.2011 10.6059 18.1204L10.6073 18.1218Z" fill="white"/>
</svg>
