<svg width="35" height="35" viewBox="0 0 35 35" fill="none" xmlns="http://www.w3.org/2000/svg">
<path d="M12.6777 3.41846L26.1796 3.4212C26.003 1.5251 24.4806 0.123213 22.594 0L3.45556 0.00547611C1.60046 0.19714 0.146492 1.64831 0 3.52251L0.00273816 20.6107C0.032858 21.8004 0.922761 23.7773 2.22339 23.995C2.5328 24.047 2.95722 23.958 3.28306 23.995V28.4717C3.36794 29.2685 4.05111 29.7504 4.80959 29.3821C5.02179 29.2794 6.93029 27.4477 6.95904 27.2998C6.99053 27.1369 6.73178 26.5824 6.76737 26.3538V8.7166C7.05488 5.6801 9.64655 3.43215 12.6791 3.41846H12.6777Z" fill="white"/>
<path d="M31.9364 5.5588C25.243 5.41642 18.503 5.41642 11.8095 5.5588C10.2474 5.90379 9.02757 7.1852 8.81673 8.7856V26.2188C9.0974 28.1176 10.5787 29.3963 12.4763 29.5305L24.7638 29.5455C26.6381 31.2883 28.333 33.2419 30.2634 34.9135C30.9055 35.201 31.6174 34.7342 31.6968 34.0592L31.7146 29.5319C33.797 29.7509 34.858 27.9219 34.9949 26.0792L34.9977 8.99095C34.8307 7.29199 33.6231 5.88873 31.9364 5.5588Z" fill="white"/>
<path d="M20.38 26.5925V16.8494H22.9683V26.5925H20.38ZM21.6742 15.8695C21.1935 15.8695 20.8052 15.7278 20.5094 15.4443C20.2136 15.1485 20.0657 14.7725 20.0657 14.3165C20.0657 13.8358 20.2198 13.4476 20.5279 13.1518C20.836 12.856 21.2243 12.7081 21.6926 12.7081C22.124 12.7081 22.4938 12.856 22.8019 13.1518C23.1224 13.4352 23.2826 13.8173 23.2826 14.298C23.2826 14.7664 23.1285 15.1485 22.8204 15.4443C22.5246 15.7278 22.1425 15.8695 21.6742 15.8695Z" fill="#242424"/>
</svg>
