<svg width="31" height="40" viewBox="0 0 31 40" fill="none" xmlns="http://www.w3.org/2000/svg">
<path d="M15.6133 37.222C17.5044 35.9908 19.2307 34.5251 20.7504 32.86C22.0699 31.4187 23.2346 29.8441 24.2256 28.1618L26.3031 29.6493C25.2502 31.4084 24.0218 33.0572 22.6366 34.5707C20.8023 36.583 18.6922 38.3276 16.3687 39.7529C16.1615 39.9045 15.9132 39.9903 15.6563 39.9993C15.3993 40.0082 15.1457 39.9399 14.9283 39.8031C11.6002 37.7113 8.64388 35.0836 6.17999 32.0272C2.97428 28.0339 0.962222 23.6041 0.26971 19.3324C-0.435393 14.9754 0.229418 10.7864 2.41272 7.35501C3.30497 5.96267 4.42415 4.72834 5.72419 3.70285C8.81405 1.25469 12.3219 -0.029583 15.8273 0.000517215C19.2143 0.0281091 22.5585 1.28229 25.4494 3.90853C26.4493 4.81943 27.3126 5.86859 28.013 7.02391C30.1837 10.5933 30.7831 15.0506 30.0402 19.6384L27.7007 17.9754C28.0634 14.4261 27.4917 11.0473 25.8448 8.33578C25.2679 7.39119 24.559 6.5331 23.7396 5.78729C21.3347 3.60251 18.5822 2.55904 15.8147 2.52643C12.8936 2.50887 9.93214 3.61255 7.30311 5.69197C6.22856 6.54163 5.30494 7.56507 4.57084 8.71956C2.73253 11.5991 2.17853 15.1811 2.78542 18.9361C3.40742 22.7764 5.2432 26.7923 8.16435 30.4444C10.2833 33.0706 12.7967 35.3551 15.6158 37.217L15.6133 37.222ZM13.095 7.37257C14.7629 6.95442 16.5131 6.99282 18.1609 7.48372C19.8086 7.97461 21.2926 8.89978 22.456 10.1614C23.6195 11.4231 24.4191 12.9744 24.7705 14.6514C25.1219 16.3283 25.0119 18.0687 24.4522 19.6886L30.9367 24.2939L28.8113 27.5046L22.5056 22.9846C21.5053 24.0836 20.2606 24.9342 18.8711 25.4683C17.4816 26.0024 15.986 26.2052 14.5037 26.0604C13.0215 25.9156 11.5938 25.4274 10.335 24.6346C9.0761 23.8419 8.02096 22.7667 7.25394 21.4951C6.48693 20.2234 6.02933 18.7906 5.91776 17.3113C5.80619 15.832 6.04374 14.3471 6.6114 12.9756C7.17907 11.6041 8.0611 10.384 9.18693 9.41277C10.3128 8.44159 11.6511 7.74632 13.095 7.3826V7.37257ZM19.2899 10.1719C17.7975 9.285 16.0426 8.94095 14.3241 9.19834C12.6056 9.45573 11.0299 10.2987 9.86535 11.5835C8.70082 12.8683 8.01954 14.5156 7.93758 16.2447C7.85561 17.9737 8.37804 19.6776 9.41584 21.066C10.4536 22.4545 11.9426 23.4415 13.6291 23.8591C15.3156 24.2766 17.0953 24.0988 18.6649 23.3559C20.2345 22.613 21.497 21.3511 22.2373 19.785C22.9776 18.2189 23.1498 16.4456 22.7247 14.7672C22.4842 13.8137 22.057 12.9169 21.4675 12.1283C20.878 11.3397 20.138 10.6748 19.2899 10.1719Z" fill="white"/>
</svg>
