<svg width="42" height="40" viewBox="0 0 42 40" fill="none" xmlns="http://www.w3.org/2000/svg">
<path fill-rule="evenodd" clip-rule="evenodd" d="M24.9974 38.0864H14.4219V1.32649H34.7821V20.7394C35.2365 20.7825 35.682 20.8526 36.1184 20.9478V1.16526C36.1184 0.524409 35.5893 0 34.9453 0H14.2595C13.6131 0 13.0856 0.525223 13.0856 1.16526V11.0948H0.982734C0.443789 11.0948 0 11.5362 0 12.0712V38.7492C0 39.1165 0.299414 39.4129 0.668555 39.4129L26.1795 39.4072L26.0072 39.2403C25.6446 38.8795 25.3066 38.4944 24.9974 38.0864ZM33.7468 23.3647C38.3037 23.3647 42 27.0339 42 31.5573C42 36.0816 38.3037 39.75 33.7468 39.75C29.19 39.75 25.4937 36.0816 25.4937 31.5573C25.4937 27.0339 29.19 23.3647 33.7468 23.3647ZM34.3243 27.1235C33.81 27.1235 33.3162 27.2277 32.8642 27.4126C32.3992 27.604 31.9764 27.884 31.6198 28.2366C31.2679 28.5868 30.9824 29.0045 30.7896 29.4687C30.5972 29.9297 30.4983 30.4239 30.4984 30.923C30.4984 31.2976 30.5542 31.6624 30.6584 32.0077C30.7437 32.2927 30.8626 32.5638 31.0095 32.8179L29.4156 34.5686C29.3131 34.6802 29.3196 34.8553 29.4328 34.957L30.4927 35.9179C30.5193 35.9424 30.5506 35.9615 30.5848 35.9739C30.6189 35.9863 30.6552 35.9919 30.6915 35.9903C30.7278 35.9887 30.7634 35.98 30.7963 35.9646C30.8292 35.9493 30.8587 35.9276 30.8831 35.9008L32.4089 34.2095C32.6624 34.3545 32.9331 34.4742 33.2169 34.5588L33.2259 34.5605C33.5754 34.6647 33.9454 34.7209 34.3243 34.7209C34.8387 34.7209 35.3333 34.6167 35.7853 34.4318C36.2503 34.2408 36.6731 33.9611 37.0297 33.6086C37.3825 33.2584 37.6671 32.8399 37.8607 32.3757C38.0524 31.915 38.1511 31.4214 38.1511 30.923C38.1511 30.4133 38.0469 29.9214 37.8607 29.4727C37.6675 29.0111 37.3852 28.5915 37.0297 28.2374C36.6751 27.884 36.2536 27.6037 35.7894 27.4126C35.3249 27.2216 34.8271 27.1234 34.3243 27.1235ZM32.6345 29.2439C32.8543 29.0265 33.1185 28.849 33.4122 28.7285L33.4261 28.7228C33.7009 28.6112 34.0044 28.5501 34.3243 28.5501C34.65 28.5501 34.9601 28.6145 35.2382 28.7277C35.531 28.849 35.7952 29.0265 36.015 29.2439C36.4465 29.6739 36.7155 30.2675 36.7155 30.923C36.7155 31.2463 36.6499 31.5533 36.5359 31.8293C36.4151 32.1177 36.2384 32.3797 36.0158 32.6005C35.7943 32.8195 35.5294 32.9978 35.239 33.1167C34.9489 33.2354 34.6381 33.2963 34.3243 33.2959C33.9995 33.2959 33.6894 33.2315 33.4113 33.1167C33.1208 32.9969 32.8568 32.8215 32.6345 32.6005C32.4155 32.3822 32.235 32.1192 32.1144 31.8293C31.9996 31.5533 31.9339 31.2455 31.9339 30.923C31.9339 30.6005 31.9996 30.2927 32.1144 30.0159L32.1202 30.002C32.2399 29.7187 32.4171 29.4613 32.6345 29.2439ZM1.33629 38.0864V12.4213H13.0856V38.0864H1.33629ZM28.6215 21.9551H26.227L26.2172 21.9559H26.2155L26.2057 21.9576H26.2041L26.1942 21.9592H26.1934L26.1836 21.9625H26.1819L26.1729 21.9649H26.1713L26.1622 21.969H26.1606L26.1516 21.973H26.1499C26.0679 22.0081 26.0105 22.1041 26.0105 22.1823V23.872C26.7766 23.1122 27.656 22.4641 28.6215 21.9551ZM26.1499 14.3488C26.0679 14.3838 26.0105 14.4799 26.0105 14.558V18.2436C26.0105 18.3225 26.0679 18.4186 26.1499 18.4536H26.1516L26.1606 18.4577H26.1622L26.1713 18.461H26.1729L26.1819 18.4634H26.1836L26.1934 18.4667H26.1942L26.2041 18.4683H26.2057L26.2155 18.4699H26.2172L26.227 18.4707H26.2287L26.2385 18.4716H30.6354C30.7617 18.4716 30.8651 18.369 30.8651 18.2436V17.0278L30.8667 17.0254V14.558C30.8667 14.4603 30.8027 14.3764 30.7141 14.3447L30.7051 14.3414H30.7035L30.6945 14.3382H30.6928L30.6838 14.3357H30.6822L30.6723 14.3333H30.6707L30.6608 14.3317H30.6477L30.6379 14.3308H26.2385L26.2287 14.3317H26.2155L26.2057 14.3333H26.2041L26.1942 14.3357H26.1934L26.1836 14.3382H26.1819L26.1729 14.3414H26.1713L26.1622 14.3447H26.1606L26.1516 14.3488H26.1499ZM22.7973 29.5794H18.4004C18.2921 29.5794 18.1724 29.6983 18.1724 29.8066V33.4921C18.1724 33.6004 18.2749 33.7201 18.4004 33.7201H22.7973C22.8818 33.7201 22.9556 33.6745 22.995 33.6077C22.7457 32.3065 22.736 30.9712 22.9663 29.6665C22.9187 29.6136 22.8498 29.5794 22.7973 29.5794ZM22.7973 21.9551H18.4004C18.2921 21.9551 18.1724 22.074 18.1724 22.1823V25.8678C18.1724 25.9761 18.2749 26.095 18.4004 26.095H22.7973C22.9236 26.095 23.027 25.9941 23.027 25.8678V22.1823C23.027 22.0569 22.8892 21.9551 22.7973 21.9551ZM22.7973 14.3308H18.4004C18.2921 14.3308 18.1724 14.4505 18.1724 14.558V18.2436C18.1724 18.3519 18.2749 18.4716 18.4004 18.4716H22.7973C22.9236 18.4716 23.027 18.369 23.027 18.2436V14.558C23.027 14.4334 22.8892 14.3308 22.7973 14.3308ZM9.84785 26.1528H4.55109C4.49285 26.1528 4.43953 26.1976 4.43953 26.2335V28.3938C4.43953 28.4296 4.49531 28.4744 4.55109 28.4744H9.84785C9.90445 28.4744 9.96024 28.4386 9.96024 28.3938V26.2335C9.96024 26.1895 9.90445 26.1528 9.84785 26.1528ZM31.7912 4.21237H17.412C17.1199 4.21237 16.8779 4.45666 16.8779 4.74329V10.3831C16.8779 10.6698 17.1216 10.914 17.412 10.914H31.7912C32.0824 10.914 32.3261 10.6746 32.3261 10.3831V4.74329C32.3261 4.45177 32.0816 4.21237 31.7912 4.21237ZM9.84785 21.4258H4.55109C4.49285 21.4258 4.43953 21.4706 4.43953 21.5064V23.6668C4.43953 23.7026 4.49531 23.7474 4.55109 23.7474H9.84785C9.90445 23.7474 9.96024 23.7108 9.96024 23.6668V21.5064C9.96024 21.4617 9.90445 21.4258 9.84785 21.4258ZM9.84785 16.6988H4.55109C4.49285 16.6988 4.43953 16.7428 4.43953 16.7786V18.9398C4.43953 18.9756 4.49531 19.0196 4.55109 19.0196H9.84785C9.90445 19.0196 9.96024 18.9838 9.96024 18.9398V16.7786C9.96024 16.7347 9.90445 16.6988 9.84785 16.6988Z" fill="white"/>
</svg>
