<svg width="41" height="40" viewBox="0 0 41 40" fill="none" xmlns="http://www.w3.org/2000/svg">
<path fill-rule="evenodd" clip-rule="evenodd" d="M7.78928 29.8852C7.1464 30.5926 6.40522 31.2046 5.58831 31.7026C5.53638 31.739 5.47445 31.7585 5.41097 31.7585C5.34749 31.7585 5.28556 31.739 5.23363 31.7026C4.06769 30.9728 3.03154 30.0549 2.16753 28.9864C1.11229 27.7076 0.402563 26.1811 0.105779 24.5518C-0.168409 23.1248 0.094766 21.6472 0.844959 20.4015C1.1572 19.9203 1.54824 19.4947 2.00179 19.1425C2.97754 18.3256 4.20493 17.8672 5.47892 17.8439C6.71506 17.8625 7.89868 18.3451 8.79363 19.1954C9.14016 19.5079 9.4384 19.8698 9.67866 20.2693C10.4908 21.5911 10.6731 23.2995 10.3085 25.0244C9.91503 26.8334 9.04552 28.5055 7.78928 29.8686V29.8852ZM5.44578 33.4308C6.10111 33.4301 6.74161 33.6253 7.2846 33.9911C7.82759 34.3568 8.24815 34.8765 8.49199 35.4829C8.55156 35.4779 8.61143 35.4779 8.67099 35.4829H11.3029C11.624 35.5223 11.9196 35.6774 12.134 35.9191C12.3483 36.1607 12.4667 36.4721 12.4667 36.7947C12.4667 37.1173 12.3483 37.4287 12.134 37.6704C11.9196 37.912 11.624 38.0671 11.3029 38.1066H8.67099C8.58974 38.1074 8.50863 38.0996 8.42901 38.0834C8.18482 38.6185 7.80054 39.078 7.31657 39.4138C6.83259 39.7495 6.26682 39.9491 5.67872 39.9915C5.09062 40.0339 4.50193 39.9175 3.97454 39.6546C3.44716 39.3918 3.00056 38.9921 2.68172 38.4976C2.36287 38.0032 2.18355 37.4322 2.1626 36.8448C2.14166 36.2574 2.27988 35.6752 2.56271 35.1594C2.84555 34.6436 3.26255 34.2134 3.76989 33.9138C4.27722 33.6143 4.85614 33.4566 5.44578 33.4572V33.4308ZM35.6361 15.3986C36.2285 15.3983 36.8099 15.5578 37.3188 15.86C37.8277 16.1622 38.2451 16.596 38.5269 17.1154C38.8088 17.6348 38.9444 18.2205 38.9196 18.8105C38.8948 19.4005 38.7104 19.9728 38.3859 20.4669C38.0615 20.9609 37.6091 21.3584 37.0766 21.617C36.5441 21.8757 35.9513 21.986 35.3611 21.9363C34.7708 21.8866 34.2051 21.6787 33.7236 21.3347C33.2422 20.9906 32.8631 20.5231 32.6264 19.9818H28.5195C28.3322 20.0067 28.1418 19.9914 27.961 19.9369C27.7802 19.8824 27.6131 19.7901 27.471 19.666C27.3289 19.542 27.215 19.3891 27.137 19.2176C27.0589 19.0461 27.0186 18.8599 27.0186 18.6716C27.0186 18.4833 27.0589 18.2972 27.137 18.1257C27.215 17.9542 27.3289 17.8013 27.471 17.6772C27.6131 17.5532 27.7802 17.4608 27.961 17.4063C28.1418 17.3519 28.3322 17.3366 28.5195 17.3614H32.6264C32.8819 16.7777 33.3029 16.281 33.8375 15.9324C34.3722 15.5837 34.9973 15.3982 35.6361 15.3986ZM25.4335 26.4155C25.2471 26.3926 25.0579 26.4095 24.8786 26.465C24.6992 26.5204 24.5337 26.6132 24.393 26.7373C24.2523 26.8613 24.1397 27.0137 24.0626 27.1844C23.9854 27.3551 23.9455 27.5402 23.9455 27.7274C23.9455 27.9146 23.9854 28.0997 24.0626 28.2704C24.1397 28.4411 24.2523 28.5935 24.393 28.7175C24.5337 28.8415 24.6992 28.9343 24.8786 28.9898C25.0579 29.0453 25.2471 29.0621 25.4335 29.0392H28.599C28.7854 29.0621 28.9746 29.0453 29.1539 28.9898C29.3333 28.9343 29.4988 28.8415 29.6395 28.7175C29.7801 28.5935 29.8928 28.4411 29.9699 28.2704C30.0471 28.0997 30.087 27.9146 30.087 27.7274C30.087 27.5402 30.0471 27.3551 29.9699 27.1844C29.8928 27.0137 29.7801 26.8613 29.6395 26.7373C29.4988 26.6132 29.3333 26.5204 29.1539 26.465C28.9746 26.4095 28.7854 26.3926 28.599 26.4155H25.4335ZM23.4214 20.0116C23.7345 19.9301 24.0068 19.7373 24.1871 19.4696C24.3675 19.2018 24.4434 18.8776 24.4006 18.5579C24.3579 18.2382 24.1993 17.9452 23.9549 17.7339C23.7104 17.5227 23.3969 17.4078 23.0734 17.411C21.9431 17.5603 20.8816 18.0371 20.0206 18.7823C19.8071 18.9767 19.6633 19.2352 19.6109 19.5186C19.5585 19.802 19.6004 20.0946 19.7303 20.3521C19.8601 20.6095 20.0708 20.8176 20.3303 20.9446C20.5897 21.0716 20.8837 21.1107 21.1674 21.0558C21.3803 21.0064 21.5781 20.9066 21.7442 20.765C22.2172 20.3555 22.8004 20.0936 23.4214 20.0116ZM20.7697 24.1454C20.6469 23.8354 20.4112 23.5831 20.1098 23.439C19.8084 23.2949 19.4635 23.2696 19.1442 23.3682C18.8249 23.4668 18.5547 23.682 18.3877 23.9707C18.2208 24.2594 18.1694 24.6004 18.2439 24.9252L18.3035 25.1037C18.6566 26.1157 19.2814 27.0118 20.11 27.6943C20.3828 27.8683 20.7099 27.9368 21.0298 27.8869C21.3497 27.8369 21.6402 27.672 21.8465 27.4232C22.0529 27.1745 22.1607 26.859 22.1498 26.5364C22.1389 26.2138 22.01 25.9064 21.7873 25.672C21.3032 25.2729 20.9452 24.7427 20.7564 24.1454H20.7697ZM16.5633 35.4696C16.2422 35.5091 15.9466 35.6642 15.7322 35.9058C15.5178 36.1475 15.3995 36.4589 15.3995 36.7815C15.3995 37.1041 15.5178 37.4155 15.7322 37.6571C15.9466 37.8988 16.2422 38.0539 16.5633 38.0933H19.1952C19.3816 38.1162 19.5707 38.0994 19.7501 38.0439C19.9295 37.9884 20.095 37.8956 20.2356 37.7716C20.3763 37.6476 20.489 37.4952 20.5661 37.3245C20.6433 37.1538 20.6832 36.9687 20.6832 36.7815C20.6832 36.5943 20.6433 36.4092 20.5661 36.2385C20.489 36.0678 20.3763 35.9154 20.2356 35.7914C20.095 35.6674 19.9295 35.5745 19.7501 35.5191C19.5707 35.4636 19.3816 35.4467 19.1952 35.4696H16.5633ZM24.4589 35.4696C24.1378 35.5091 23.8422 35.6642 23.6278 35.9058C23.4135 36.1475 23.2951 36.4589 23.2951 36.7815C23.2951 37.1041 23.4135 37.4155 23.6278 37.6571C23.8422 37.8988 24.1378 38.0539 24.4589 38.0933H27.0908C27.2772 38.1162 27.4664 38.0994 27.6457 38.0439C27.8251 37.9884 27.9906 37.8956 28.1313 37.7716C28.272 37.6476 28.3846 37.4952 28.4618 37.3245C28.5389 37.1538 28.5788 36.9687 28.5788 36.7815C28.5788 36.5943 28.5389 36.4092 28.4618 36.2385C28.3846 36.0678 28.272 35.9154 28.1313 35.7914C27.9906 35.6674 27.8251 35.5745 27.6457 35.5191C27.4664 35.4636 27.2772 35.4467 27.0908 35.4696H24.4589ZM31.9336 35.3242C31.6761 35.4127 31.4522 35.5781 31.2923 35.7979C31.1323 36.0177 31.0442 36.2813 31.0399 36.5528C31.0355 36.8243 31.1152 37.0905 31.268 37.3153C31.4208 37.5401 31.6393 37.7126 31.8938 37.8092C32.1657 37.9016 32.4606 37.9016 32.7325 37.8092C33.8184 37.4667 34.7804 36.8155 35.5002 35.9356C35.6385 35.8066 35.7474 35.6497 35.8197 35.4753C35.8921 35.3009 35.9261 35.113 35.9195 34.9244C35.9129 34.7358 35.8659 34.5508 35.7816 34.3818C35.6973 34.2128 35.5777 34.0638 35.4308 33.9448C35.2839 33.8257 35.1132 33.7394 34.93 33.6916C34.7469 33.6439 34.5556 33.6357 34.3691 33.6678C34.1825 33.6999 34.005 33.7714 33.8485 33.8776C33.692 33.9838 33.5601 34.1221 33.4617 34.2833L33.3954 34.3593C33.0047 34.8047 32.4992 35.135 31.9336 35.3143V35.3242ZM33.8495 30.8038C34.0377 31.0581 34.311 31.2368 34.6199 31.3075C34.9288 31.3782 35.253 31.3362 35.5335 31.1892C35.8141 31.0421 36.0325 30.7998 36.1493 30.506C36.266 30.2122 36.2733 29.8864 36.1698 29.5878C35.6434 28.5818 34.838 27.7479 33.8495 27.1855C33.6992 27.0727 33.5265 26.9931 33.3429 26.952C33.1594 26.9109 32.9691 26.9092 32.7848 26.947C32.6006 26.9849 32.4265 27.0614 32.2742 27.1715C32.1218 27.2815 31.9948 27.4227 31.9014 27.5855C31.808 27.7483 31.7504 27.9291 31.7325 28.1158C31.7146 28.3025 31.7367 28.4909 31.7975 28.6684C31.8582 28.8459 31.9561 29.0085 32.0848 29.1453C32.2134 29.2822 32.3698 29.3902 32.5435 29.4622C33.0903 29.7777 33.5345 30.2434 33.823 30.8038H33.8495ZM38.0493 12.0281C37.4042 12.7345 36.662 13.3464 35.845 13.8455C35.7919 13.879 35.7304 13.8968 35.6676 13.8968C35.6048 13.8968 35.5433 13.879 35.4903 13.8455C34.3244 13.1129 33.2893 12.1915 32.4275 11.1194C31.3729 9.8402 30.6632 8.31384 30.3658 6.68484C30.0922 5.26104 30.3554 3.78669 31.1049 2.5444C31.411 2.06262 31.7965 1.63585 32.2452 1.28211C33.2268 0.466173 34.4609 0.0132649 35.7389 0C36.5856 0.0243934 37.4129 0.258593 38.1461 0.68146C38.8793 1.10433 39.4954 1.70255 39.9386 2.42214C40.7507 3.74391 40.9331 5.4556 40.5684 7.1772C40.1745 8.98707 39.3051 10.66 38.0493 12.0248V12.0281ZM35.5069 2.6898C36.0222 2.6898 36.5259 2.84212 36.9543 3.12752C37.3828 3.41291 37.7167 3.81855 37.9139 4.29314C38.1111 4.76773 38.1627 5.28995 38.0622 5.79377C37.9616 6.29759 37.7135 6.76039 37.3491 7.12362C36.9848 7.48686 36.5205 7.73422 36.0152 7.83444C35.5098 7.93465 34.9859 7.88322 34.5098 7.68664C34.0338 7.49006 33.6269 7.15716 33.3406 6.73004C33.0543 6.30292 32.9015 5.80076 32.9015 5.28707C32.9011 4.94587 32.9682 4.60793 33.0989 4.29262C33.2297 3.97731 33.4216 3.69082 33.6636 3.44955C33.9056 3.20829 34.193 3.01699 34.5093 2.88662C34.8256 2.75625 35.1646 2.68936 35.5069 2.6898ZM5.24689 20.5337C5.76219 20.5337 6.26591 20.686 6.69435 20.9714C7.1228 21.2568 7.45674 21.6624 7.65393 22.137C7.85113 22.6116 7.90272 23.1338 7.80219 23.6376C7.70167 24.1415 7.45353 24.6042 7.08916 24.9675C6.7248 25.3307 6.26057 25.5781 5.75517 25.6783C5.24978 25.7785 4.72593 25.7271 4.24986 25.5305C3.7738 25.3339 3.3669 25.001 3.08061 24.5739C2.79433 24.1468 2.64153 23.6446 2.64153 23.1309C2.6411 22.7897 2.70819 22.4518 2.83896 22.1365C2.96974 21.8212 3.16163 21.5347 3.40365 21.2934C3.64567 21.0522 3.93305 20.8609 4.24935 20.7305C4.56564 20.6001 4.90463 20.5332 5.24689 20.5337Z" fill="white"/>
</svg>
