<svg width="48" height="38" viewBox="0 0 48 38" fill="none" xmlns="http://www.w3.org/2000/svg">
<path d="M33.921 6.90089C33.8418 6.98123 33.4673 7.1354 33.3518 7.14842C32.8831 7.19402 31.4793 6.028 30.9208 5.71966C24.5524 2.20856 16.3137 4.39296 12.1002 10.2187C8.09208 15.7644 8.74689 23.7985 13.2985 28.81C13.8078 29.3702 15.2245 30.4147 15.3914 31.0292C15.7017 32.1887 14.6403 32.7489 14.0518 33.5284H25.3378C35.618 32.801 41.8366 20.4741 36.7136 11.4564C36.2706 10.6769 35.0017 9.56516 35.7143 8.77044C36.6088 7.77378 37.4861 9.44356 37.9141 10.1297C44.1927 20.2244 37.1373 34.575 25.3442 35.2698C21.2976 35.5087 16.9535 35.1417 12.8941 35.1917C10.7606 33.9996 12.496 32.5708 13.5104 31.4265C7.05207 25.8374 5.70392 15.6776 11.0152 8.78564C15.9713 2.35187 25.3934 0.210897 32.3781 4.56449C33.018 4.96403 34.8348 5.97154 33.921 6.90089Z" fill="white"/>
<path d="M3.83184 1.82865C3.00369 1.64843 2.90739 0.252237 3.83826 0.0980695C4.69423 -0.0430695 7.95976 -0.0191845 8.86281 0.0893841C9.45343 0.161039 9.70594 0.5432 9.77014 1.12296C9.87928 2.10224 9.88784 4.92285 9.74446 5.87391C9.64816 6.51447 9.12816 6.93789 8.48832 6.65778C8.43483 6.63389 8.0582 6.25608 8.0582 6.22568V3.13147C4.5209 6.58178 2.39381 11.4891 1.85241 16.4311C1.78393 17.0652 1.83743 18.7588 1.66409 19.1714C1.36236 19.8879 0.170423 19.7729 0.0398876 18.9217C-0.090648 18.0705 0.129765 16.1944 0.26244 15.2521C0.968616 10.1993 3.3632 5.52215 6.77424 1.82865C5.93325 1.70271 4.60649 1.99802 3.83184 1.82865Z" fill="white"/>
<path d="M41.2269 35.7022H44.1693C44.2378 35.7022 44.5823 35.991 44.6529 36.08C45.0937 36.6424 44.7514 37.068 44.2549 37.4176C42.6478 37.3155 40.7048 37.6304 39.1383 37.4414C38.5477 37.3698 38.2952 36.9876 38.231 36.4079C38.1219 35.4286 38.1133 32.608 38.2567 31.6569C38.353 31.0164 38.873 30.5929 39.5128 30.873C39.5663 30.8969 39.9429 31.2748 39.9429 31.3052V34.3994C43.4695 30.9512 45.6095 26.0352 46.1487 21.0997C46.2172 20.47 46.1573 18.785 46.337 18.3594C46.6388 17.6429 47.8307 17.758 47.9613 18.6091C48.0918 19.4603 47.8607 21.2343 47.7366 22.168C47.0475 27.2816 44.6829 31.9718 41.2269 35.7022Z" fill="white"/>
<path d="M16.0504 11.8409L31.7575 11.8148C32.8381 11.9234 32.8403 13.4477 31.7575 13.5562H16.2387C15.2608 13.4716 15.126 12.1535 16.0504 11.8409Z" fill="white"/>
<path d="M17.9762 17.9207L29.8314 17.8946C30.9121 18.0032 30.9142 19.5275 29.8314 19.6361H18.1646C17.1866 19.5514 17.0518 18.2334 17.9762 17.9207Z" fill="white"/>
<path d="M28.4598 24.2284C28.9455 24.7669 28.6288 25.6398 27.9098 25.718C25.4553 25.4835 22.483 26.0133 20.0905 25.718C19.0569 25.5899 19.0569 24.1003 20.0905 23.9722C22.483 23.6769 25.4553 24.2067 27.9098 23.9722C28.0896 23.9896 28.3421 24.0981 28.4598 24.2284Z" fill="white"/>
</svg>
