<svg width="35" height="35" viewBox="0 0 35 35" fill="none" xmlns="http://www.w3.org/2000/svg">
<path d="M28.4604 9.75533H29.9541C32.4443 9.75533 34.7204 12.8355 34.8928 15.1694C35.234 19.8152 34.6278 24.8734 34.8928 29.5631C34.6841 32.1159 32.8581 34.2892 30.3661 34.8439C22.0752 35.1523 13.7298 34.8932 5.41882 34.9753C2.64911 34.6998 0.35131 32.4699 0.122619 29.6488C-0.258533 24.9556 0.39487 19.7477 0.133509 15.0015C0.128064 12.7625 2.84151 9.7535 5.05582 9.7535H6.54957C3.50943 2.67892 11.9383 -3.226 17.5376 2.00923C23.0553 -3.26979 31.5187 2.74461 28.4604 9.75533ZM15.5121 9.66409V6.06749C15.5121 5.48174 14.4685 4.43433 13.9439 4.18434C11.029 2.7957 8.38818 6.53645 10.5735 8.84842C10.7604 9.04549 11.7096 9.66409 11.9347 9.66409H15.5121ZM19.4979 9.66409H23.0752C23.5943 9.66409 24.6452 8.68419 24.8903 8.21158C26.217 5.65692 23.4981 2.90701 20.9408 4.24091C20.4707 4.48543 19.4979 5.54561 19.4979 6.06749V9.66409ZM15.6028 13.6713C14.6536 13.6494 13.6971 13.6986 12.7478 13.6749C10.5698 13.6202 8.13589 13.3829 5.96151 13.5818C4.9324 13.6767 4.11746 14.2661 4.01037 15.3519L4.014 29.47C3.95955 30.0211 4.9451 31.063 5.41701 31.063H15.6028V13.6713ZM19.4071 31.063H29.5929C30.0649 31.063 31.0522 30.0211 30.996 29.47L30.9996 15.3519C30.8925 14.2643 30.0776 13.6749 29.0484 13.5818C26.8759 13.3829 24.4401 13.622 22.2621 13.6749C21.3111 13.6986 20.3564 13.6494 19.4071 13.6713V31.063Z" fill="white"/>
</svg>
