<svg width="34" height="39" viewBox="0 0 34 39" fill="none" xmlns="http://www.w3.org/2000/svg">
<path d="M14.7716 37.0006C15.3211 37.0006 15.7665 37.4481 15.7665 38.0003C15.7665 38.5526 15.3211 39.0001 14.7716 39.0001H2.31507C1.67708 39.0001 1.0991 38.7398 0.679044 38.3177C0.258984 37.8956 0 37.3148 0 36.6737V2.32642C0 1.68531 0.258984 1.10449 0.679044 0.682375C1.0991 0.260255 1.67708 0 2.31507 0H30.7465C31.3845 0 31.9624 0.263428 32.3825 0.682375C32.8026 1.10449 33.0616 1.68531 33.0616 2.32642V18.24C33.0616 18.7923 32.6162 19.2398 32.0667 19.2398C31.5171 19.2398 31.0718 18.7923 31.0718 18.24V2.32642C31.0718 2.23755 31.0339 2.15503 30.9739 2.09791C30.9139 2.0376 30.8318 1.99952 30.7465 1.99952H2.31507C2.22663 1.99952 2.14452 2.0376 2.08451 2.09473C2.02766 2.15821 1.98976 2.23755 1.98976 2.32642V36.6705C1.98976 36.7594 2.02766 36.8419 2.08767 36.899C2.14767 36.9593 2.22979 36.9974 2.31823 36.9974H14.7716V37.0006ZM31.1729 23.5943C31.0118 23.4388 30.8254 23.3658 30.6107 23.3689C30.3959 23.3721 30.2127 23.4578 30.0611 23.6165L28.8262 24.9083L32.2909 28.2694L33.5385 26.9649C33.6869 26.8126 33.7501 26.6158 33.7469 26.4C33.7438 26.1873 33.668 25.9937 33.5164 25.8477L31.1729 23.5943ZM24.7014 36.1849C24.2435 36.3309 23.7887 36.4832 23.3339 36.6324C22.8759 36.7847 22.4211 36.9403 21.9663 37.0926C20.8893 37.4481 20.286 37.6449 20.1597 37.6798C20.0365 37.7179 20.1092 37.21 20.3808 36.1532L21.2367 32.8365L27.7271 26.0508L31.1887 29.3992L24.7014 36.1849ZM9.97405 13.0381C9.4245 13.0381 8.97917 12.5906 8.97917 12.0384C8.97917 11.4861 9.4245 11.0386 9.97405 11.0386H23.0938C23.6434 11.0386 24.0887 11.4861 24.0887 12.0384C24.0887 12.5906 23.6434 13.0381 23.0938 13.0381H9.97405ZM9.97405 27.222C9.4245 27.222 8.97602 26.7681 8.97602 26.2095C8.97602 25.6509 9.42134 25.1971 9.97405 25.1971H16.4392C16.9887 25.1971 17.4372 25.6509 17.4372 26.2095C17.4372 26.7681 16.9919 27.222 16.4392 27.222H9.97405ZM9.97405 20.1253C9.4245 20.1253 8.97917 19.6778 8.97917 19.1255C8.97917 18.5733 9.4245 18.1258 9.97405 18.1258H23.0938C23.6434 18.1258 24.0887 18.5733 24.0887 19.1255C24.0887 19.6778 23.6434 20.1253 23.0938 20.1253H9.97405Z" fill="white"/>
</svg>
