<svg width="43" height="46" viewBox="0 0 43 46" fill="none" xmlns="http://www.w3.org/2000/svg">
<path fill-rule="evenodd" clip-rule="evenodd" d="M31.894 25.1263C33.95 25.127 35.9597 25.7398 37.6689 26.887C39.3781 28.0343 40.71 29.6646 41.4963 31.5717C42.2826 33.4789 42.488 35.5772 42.0864 37.6015C41.6848 39.6258 40.6944 41.4852 39.2403 42.9444C37.7862 44.4036 35.9337 45.3973 33.9171 45.7997C31.9005 46.2021 29.8103 45.9952 27.9109 45.2051C26.0114 44.4151 24.3879 43.0774 23.2457 41.3611C22.1035 39.6449 21.4939 37.6272 21.4939 35.5631C21.4939 34.1922 21.7629 32.8348 22.2856 31.5683C22.8083 30.3018 23.5744 29.1511 24.5402 28.1819C25.506 27.2127 26.6525 26.444 27.9143 25.9197C29.1761 25.3954 30.5284 25.1258 31.894 25.1263ZM16.4076 41.0922C16.6742 41.1304 16.9182 41.2638 17.0948 41.4681C17.2713 41.6723 17.3685 41.9337 17.3685 42.2041C17.3685 42.4745 17.2713 42.7358 17.0948 42.94C16.9182 43.1443 16.6742 43.2777 16.4076 43.3159H2.57311C1.89097 43.3129 1.23767 43.0393 0.755674 42.5547C0.273677 42.0702 0.00208269 41.4139 0.000120406 40.7291V2.58306C-0.0031719 2.24291 0.0610836 1.9055 0.189134 1.59056C0.317184 1.27562 0.506463 0.989442 0.745914 0.748754C0.986287 0.509213 1.27147 0.319748 1.58505 0.191258C1.89863 0.0627679 2.23442 -0.00221167 2.57311 5.74414e-05H34.1836C34.8657 0.00202736 35.5194 0.274678 36.0021 0.758552C36.4848 1.24243 36.7573 1.89827 36.7603 2.58306V20.2598C36.7829 20.419 36.7712 20.5813 36.7259 20.7356C36.6806 20.8899 36.6028 21.0327 36.4978 21.1542C36.3928 21.2757 36.263 21.3731 36.1172 21.4399C35.9714 21.5067 35.813 21.5412 35.6528 21.5412C35.4925 21.5412 35.3342 21.5067 35.1884 21.4399C35.0426 21.3731 34.9128 21.2757 34.8078 21.1542C34.7028 21.0327 34.625 20.8899 34.5797 20.7356C34.5344 20.5813 34.5227 20.419 34.5453 20.2598V2.58306C34.5453 2.48378 34.506 2.38856 34.4361 2.31836C34.3661 2.24815 34.2713 2.20871 34.1724 2.20871H2.57311C2.4789 2.20904 2.38831 2.24515 2.31954 2.30979C2.25379 2.37824 2.21646 2.46926 2.21513 2.56434V40.7291C2.21746 40.8247 2.25615 40.9158 2.32327 40.9837C2.39087 41.0511 2.4816 41.0899 2.57684 41.0922H16.4076ZM8.5059 26.6986C8.89768 26.6978 9.28087 26.8138 9.60699 27.0317C9.9331 27.2497 10.1875 27.5599 10.3379 27.9231C10.4884 28.2862 10.5281 28.686 10.4521 29.0718C10.3761 29.4577 10.1878 29.8122 9.91107 30.0906C9.6343 30.369 9.28149 30.5587 8.89729 30.6357C8.51309 30.7127 8.11477 30.6735 7.75274 30.5232C7.39071 30.3728 7.08125 30.1181 6.86351 29.7911C6.64577 29.4641 6.52954 29.0797 6.52954 28.6864C6.52954 28.1598 6.73765 27.6548 7.10818 27.2821C7.47871 26.9094 7.98139 26.6996 8.5059 26.6986ZM8.5059 16.9655C8.89768 16.9648 9.28087 17.0807 9.60699 17.2987C9.9331 17.5167 10.1875 17.8269 10.3379 18.19C10.4884 18.5532 10.5281 18.953 10.4521 19.3388C10.3761 19.7246 10.1878 20.0792 9.91107 20.3576C9.6343 20.6359 9.28149 20.8256 8.89729 20.9026C8.51309 20.9796 8.11477 20.9405 7.75274 20.7901C7.39071 20.6398 7.08125 20.385 6.86351 20.058C6.64577 19.7311 6.52954 19.3466 6.52954 18.9533C6.52954 18.4268 6.73765 17.9217 7.10818 17.549C7.47871 17.1764 7.98139 16.9665 8.5059 16.9655ZM14.5431 29.7944C14.2815 29.7511 14.0437 29.6159 13.8722 29.413C13.7006 29.21 13.6065 28.9525 13.6065 28.6864C13.6065 28.4202 13.7006 28.1627 13.8722 27.9597C14.0437 27.7568 14.2815 27.6216 14.5431 27.5783H19.6033C19.8649 27.6216 20.1027 27.7568 20.2742 27.9597C20.4458 28.1627 20.5399 28.4202 20.5399 28.6864C20.5399 28.9525 20.4458 29.21 20.2742 29.413C20.1027 29.6159 19.8649 29.7511 19.6033 29.7944H14.5431ZM14.5431 10.7326C14.4089 10.7199 14.2785 10.6808 14.1593 10.6175C14.0402 10.5542 13.9346 10.4679 13.8487 10.3636C13.7628 10.2593 13.6983 10.139 13.6587 10.0096C13.6192 9.88023 13.6055 9.74429 13.6183 9.60957C13.6055 9.47485 13.6192 9.33891 13.6587 9.20953C13.6983 9.08014 13.7628 8.95986 13.8487 8.85555C13.9346 8.75124 14.0402 8.66496 14.1593 8.60164C14.2785 8.53832 14.4089 8.4992 14.5431 8.48653H26.7778C27.0492 8.51215 27.2993 8.64478 27.4734 8.85532C27.6475 9.06585 27.7313 9.33711 27.7064 9.60957C27.7313 9.88204 27.6475 10.1533 27.4734 10.3638C27.2993 10.5744 27.0492 10.707 26.7778 10.7326H14.5431ZM6.19394 9.9652C6.13852 9.89461 6.09816 9.81331 6.07538 9.72638C6.0526 9.63945 6.04789 9.54875 6.06153 9.45991C6.07517 9.37107 6.10687 9.286 6.15467 9.21C6.20247 9.13399 6.26534 9.06867 6.33937 9.0181C6.47309 8.88768 6.65062 8.81226 6.83698 8.80672C7.02334 8.80117 7.20501 8.86591 7.34619 8.98815L7.98011 9.64326L10.0161 7.99988C10.0899 7.94986 10.1731 7.9156 10.2606 7.89924C10.3481 7.88288 10.438 7.88477 10.5247 7.90478C10.6115 7.92479 10.6932 7.96251 10.7648 8.01558C10.8364 8.06864 10.8963 8.13593 10.9409 8.21325C11.0584 8.35909 11.117 8.54386 11.1053 8.73102C11.0935 8.91818 11.0123 9.0941 10.8775 9.22399L8.26724 11.3278C8.14079 11.4185 7.98528 11.4587 7.83091 11.4408C7.67655 11.4228 7.53436 11.3478 7.43195 11.2305C7.40449 11.2111 7.37945 11.1885 7.35737 11.1631L6.19394 9.96146V9.9652ZM13.9129 20.0726C13.6513 20.0293 13.4135 19.8941 13.242 19.6912C13.0704 19.4882 12.9763 19.2307 12.9763 18.9645C12.9763 18.6984 13.0704 18.4409 13.242 18.2379C13.4135 18.035 13.6513 17.8998 13.9129 17.8565H26.1663C26.4279 17.8998 26.6657 18.035 26.8372 18.2379C27.0087 18.4409 27.1029 18.6984 27.1029 18.9645C27.1029 19.2307 27.0087 19.4882 26.8372 19.6912C26.6657 19.8941 26.4279 20.0293 26.1663 20.0726H13.9129ZM30.1675 31.2469C30.1586 31.0897 30.1817 30.9323 30.2355 30.7844C30.2893 30.6365 30.3725 30.5012 30.4802 30.3868C30.5879 30.2723 30.7178 30.1811 30.8618 30.1188C31.0058 30.0565 31.161 30.0244 31.3179 30.0244C31.4747 30.0244 31.6299 30.0565 31.7739 30.1188C31.9179 30.1811 32.0478 30.2723 32.1555 30.3868C32.2632 30.5012 32.3465 30.6365 32.4002 30.7844C32.454 30.9323 32.4772 31.0897 32.4682 31.2469V35.8214H35.7199C35.8765 35.8125 36.0332 35.8357 36.1806 35.8897C36.3279 35.9437 36.4627 36.0273 36.5767 36.1354C36.6907 36.2435 36.7815 36.3739 36.8436 36.5185C36.9057 36.6631 36.9377 36.8188 36.9377 36.9763C36.9377 37.1337 36.9057 37.2895 36.8436 37.4341C36.7815 37.5787 36.6907 37.709 36.5767 37.8172C36.4627 37.9253 36.3279 38.0089 36.1806 38.0629C36.0332 38.1169 35.8765 38.1401 35.7199 38.1312H31.3235C31.0188 38.1312 30.7267 38.0097 30.5113 37.7935C30.2959 37.5772 30.1749 37.284 30.1749 36.9782V31.2469H30.1675Z" fill="white"/>
</svg>
