<svg width="16" height="18" viewBox="0 0 16 18" fill="none" xmlns="http://www.w3.org/2000/svg">
<path d="M2.02197 1.02563H13.9779M2.02197 1.02563V16.9669M2.02197 1.02563H1.02563M13.9779 1.02563V16.9669M13.9779 1.02563H14.9743M2.02197 16.9669H13.9779M2.02197 16.9669H1.02563M13.9779 16.9669H14.9743M5.01096 4.01463H6.00729V5.01096H5.01096V4.01463ZM9.99261 4.01463H10.9889V5.01096H9.99261V4.01463ZM5.01096 7.99995H6.00729V8.99628H5.01096V7.99995ZM9.99261 7.99995H10.9889V8.99628H9.99261V7.99995ZM7.00362 11.9853H8.99628C9.26053 11.9853 9.51395 12.0902 9.70079 12.2771C9.88764 12.4639 9.99261 12.7174 9.99261 12.9816V16.9669H6.00729V12.9816C6.00729 12.7174 6.11226 12.4639 6.29911 12.2771C6.48596 12.0902 6.73938 11.9853 7.00362 11.9853Z" stroke="white" stroke-width="2" stroke-linecap="round" stroke-linejoin="round"/>
</svg>
