<svg width="18" height="18" viewBox="0 0 18 18" fill="none" xmlns="http://www.w3.org/2000/svg">
<g clip-path="url(#clip0_3245_2572)">
<path d="M7.7733 10.6406L7.60476 10.6647L0.35658 13.2932C0.2084 13.3109 0.0531973 13.1763 0.0300222 13.0268C-0.0100074 12.7723 -0.0100074 11.6221 0.0300222 11.3684C0.0419609 11.2926 0.0784792 11.2394 0.131852 11.1884L7.76628 6.24815L7.78243 1.04637C8.05632 -0.325655 9.91243 -0.359672 10.2179 1.01093L10.2348 6.24744L17.8516 11.17C17.9113 11.2317 17.957 11.277 17.971 11.3677C18.0111 11.6214 18.0111 12.7723 17.971 13.0261C17.9457 13.1876 17.7976 13.289 17.6431 13.2911C15.2504 12.5045 12.9175 11.496 10.5262 10.7101C10.4286 10.6782 10.3345 10.6307 10.2278 10.6399V14.8672C10.2278 14.9551 10.4061 15.1209 10.4728 15.1861C10.8872 15.5894 11.4336 15.9373 11.857 16.3363C11.9027 16.3789 12.0502 16.5093 12.0677 16.5482C12.1 16.6198 12.1035 17.6425 12.0839 17.7658C12.0607 17.9089 11.9237 17.9862 11.7889 17.9989L8.98473 17.1825L6.18335 17.9975C6.09065 17.9883 5.93615 17.8629 5.91859 17.7672C5.89823 17.6588 5.90666 16.6127 5.93615 16.5482C5.95371 16.5086 6.10119 16.3789 6.14683 16.3363C6.57031 15.9373 7.11667 15.5894 7.53102 15.1861C7.59773 15.1209 7.77611 14.9551 7.77611 14.8672V10.6399L7.7733 10.6406Z" fill="#242424"/>
</g>
<defs>
<clipPath id="clip0_3245_2572">
<rect width="18" height="18" fill="white"/>
</clipPath>
</defs>
</svg>
