<svg width="20" height="26" viewBox="0 0 20 26" fill="none" xmlns="http://www.w3.org/2000/svg">
<path d="M17.4974 4.50323V5.45807L12.9297 2.8129C11.2007 1.81935 8.78776 1.81935 7.07165 2.8129L2.50391 5.47097V4.50323C2.50391 1.6 4.091 0 6.99423 0H13.0071C15.9103 0 17.4974 1.6 17.4974 4.50323Z" fill="white"/>
<path d="M17.5355 7.70121L17.3548 7.61088L15.6 6.60443L11.9613 4.50121C10.8516 3.85604 9.14839 3.85604 8.03871 4.50121L4.4 6.59153L2.64516 7.62379L2.4129 7.73992C0.154839 9.2625 0 9.54637 0 11.9851V17.8174C0 20.2561 0.154839 20.5399 2.46452 22.1012L8.03871 25.3141C8.59355 25.6496 9.29032 25.7916 10 25.7916C10.6968 25.7916 11.4065 25.6367 11.9613 25.3141L17.5871 22.0625C19.8581 20.5399 20 20.269 20 17.8174V11.9851C20 9.54637 19.8452 9.2625 17.5355 7.70121ZM13.6 14.8367L12.8129 15.8045C12.6839 15.9464 12.5935 16.2174 12.6065 16.4109L12.6839 17.6496C12.7355 18.4109 12.1935 18.798 11.4839 18.527L10.3355 18.0625C10.1548 17.998 9.85806 17.998 9.67742 18.0625L8.52903 18.5141C7.81935 18.798 7.27742 18.398 7.32903 17.6367L7.40645 16.398C7.41935 16.2045 7.32903 15.9335 7.2 15.7916L6.4 14.8367C5.90968 14.2561 6.12903 13.6109 6.86452 13.4174L8.06452 13.1077C8.25806 13.0561 8.47742 12.8754 8.58064 12.7206L9.25161 11.6883C9.66452 11.0432 10.3226 11.0432 10.7484 11.6883L11.4194 12.7206C11.5226 12.8883 11.7548 13.0561 11.9355 13.1077L13.1355 13.4174C13.871 13.6109 14.0903 14.2561 13.6 14.8367Z" fill="white"/>
</svg>
