<svg width="32" height="35" viewBox="0 0 32 35" fill="none" xmlns="http://www.w3.org/2000/svg">
<path d="M28.0568 5.89419L27.7677 5.74968L24.96 4.13936L19.1381 0.774194C17.3626 -0.258065 14.6374 -0.258065 12.8619 0.774194L7.04 4.11871L4.23226 5.77032L3.86064 5.95613C0.247742 8.39226 0 8.84645 0 12.7484V22.08C0 25.982 0.247742 26.4362 3.94323 28.9342L12.8619 34.0749C13.7497 34.6117 14.8645 34.8388 16 34.8388C17.1148 34.8388 18.2503 34.591 19.1381 34.0749L28.1394 28.8723C31.7729 26.4362 32 26.0026 32 22.08V12.7484C32 8.84645 31.7523 8.39226 28.0568 5.89419ZM21.76 17.311L20.5006 18.8594C20.2942 19.0865 20.1497 19.52 20.1703 19.8297L20.2942 21.8117C20.3768 23.0297 19.5097 23.6491 18.3742 23.2155L16.5368 22.4723C16.2477 22.3691 15.7729 22.3691 15.4839 22.4723L13.6465 23.1949C12.511 23.6491 11.6439 23.0091 11.7265 21.791L11.8503 19.8091C11.871 19.4994 11.7265 19.0659 11.52 18.8388L10.24 17.311C9.45548 16.382 9.80645 15.3497 10.9832 15.04L12.9032 14.5446C13.2129 14.462 13.5639 14.1729 13.729 13.9252L14.8026 12.2736C15.4632 11.2413 16.5161 11.2413 17.1974 12.2736L18.271 13.9252C18.4361 14.1936 18.8077 14.462 19.0968 14.5446L21.0168 15.04C22.1935 15.3497 22.5445 16.382 21.76 17.311Z" fill="white"/>
</svg>
