<svg width="15" height="19" viewBox="0 0 15 19" fill="none" xmlns="http://www.w3.org/2000/svg">
<path fill-rule="evenodd" clip-rule="evenodd" d="M14.745 2.26291H11.4576L11.4617 2.20284V0.636204C11.4617 0.288063 11.1385 0 10.7445 0C10.3504 0 10.0286 0.286523 10.0286 0.636204V2.20284L10.0327 2.26291H4.77093L4.77502 2.20284V0.636204C4.77502 0.288063 4.45187 0 4.05781 0C3.66239 0 3.34061 0.286523 3.34061 0.636204V2.20284L3.3447 2.26291H0.254977C0.114535 2.26291 0 2.39077 0 2.54944V5.54714C0 5.70581 0.114535 5.8352 0.254977 5.83674H14.745C14.8855 5.83674 15 5.70735 15 5.54868V2.55098C15 2.39231 14.8855 2.26291 14.745 2.26291ZM4.71094 3.9651C4.71094 4.31324 4.38778 4.60131 3.99373 4.60131H3.99236V4.52891C3.59831 4.52891 3.27652 4.24238 3.27652 3.8927V2.32761L3.28061 2.26445H4.70685L4.71094 2.32761V3.9651ZM11.399 3.9651C11.399 4.31324 11.0758 4.60131 10.6818 4.60131L10.6804 4.52891C10.2863 4.52891 9.96455 4.24238 9.96455 3.8927V2.32761L9.96864 2.26445H11.3949L11.399 2.32761V3.9651ZM14.9373 6.49914H0.0640851C0.0286338 6.49914 0 6.53149 0.00136351 6.57154V18.8566C0.00136351 18.8951 0.0299973 18.9274 0.0640851 18.9274H14.9373C14.9714 18.9274 15 18.8951 15 18.8566V6.57C15 6.53149 14.9727 6.49914 14.9373 6.49914ZM14.1287 17.6181C14.1287 17.6935 14.0674 17.7629 14.0005 17.7629H1.14399C1.07717 17.7629 1.01582 17.6982 1.01582 17.6181V8.00569C1.01582 7.84702 1.13035 7.71917 1.26943 7.71917L1.20535 7.79157H14.0005C14.0714 7.79157 14.1287 7.86089 14.1287 7.93637V17.6181Z" fill="#242424"/>
</svg>
