<svg width="23" height="27" viewBox="0 0 23 27" fill="none" xmlns="http://www.w3.org/2000/svg">
<path fill-rule="evenodd" clip-rule="evenodd" d="M10.7054 10.3667C12.3197 15.9253 11.5859 21.2963 10.0141 26.8069H13.1867C14.3839 18.0545 13.3644 14.2543 12.1691 10.8358C12.7781 11.2813 13.3348 11.812 13.8259 12.4152L15.2297 12.1643L14.438 13.2137C14.6247 13.4755 14.8101 13.754 14.9941 14.0492L16.3014 13.8158L15.4923 14.8891C15.6333 15.1378 15.7723 15.3974 15.9094 15.6657L17.1085 15.4476L16.3226 16.4904C16.4868 16.8351 16.649 17.1928 16.8131 17.5615L17.8191 17.3826L17.1259 18.3011C17.4889 19.1737 17.8481 20.1189 18.2034 21.1371C20.8431 15.5807 19.1689 11.4924 12.8971 8.83966C13.6094 8.58769 14.3486 8.44523 15.0945 8.41644L15.641 7.57436L15.7008 8.4208C16.1297 8.44262 16.5565 8.50174 16.9772 8.59751L17.4329 7.88632L17.4889 8.72622C17.8512 8.83442 18.2077 8.96553 18.5568 9.1189L19.0241 8.39462L19.0936 9.37632C19.4738 9.57179 19.8446 9.79038 20.2039 10.0308L20.7388 9.2018L20.8276 10.4627C21.5911 11.0299 22.3172 11.6591 23 12.3454C21.3123 5.14629 16.4983 3.4185 12.1961 7.522C12.7812 2.37135 10.9043 1.13441 8.38627 0C8.70295 0.543207 8.99647 1.09078 9.25715 1.65144L9.94265 1.74524L9.46183 2.10956C9.67057 2.59736 9.84861 3.10108 9.99478 3.61702L10.6069 3.69119L10.1106 4.07733C10.3032 4.90152 10.3781 5.75494 10.3327 6.60575C6.44949 2.5786 3.20737 4.0686 0.223994 7.61799C0.816807 7.46092 1.41348 7.32348 2.01016 7.22094L2.2747 6.47485L2.47746 7.14677C2.93684 7.08045 3.39892 7.04119 3.86197 7.02897L4.12652 6.28288L4.35051 7.02679C4.73497 7.03639 5.11866 7.07129 5.49945 7.1315L5.77944 6.32651L6.05557 7.24276C6.45046 7.33897 6.83801 7.47117 7.21416 7.63762L7.5714 6.62974L8.00008 8.05212C8.19318 8.16774 8.37469 8.29645 8.56006 8.43607C4.06666 7.79688 1.54479 10.6569 0 14.4113C0.628729 13.7501 1.29859 13.1406 2.00436 12.5876L1.94643 12.1774L2.21098 12.4349C2.63367 12.1192 3.07799 11.8419 3.5395 11.6059L3.44874 10.9514L3.93728 11.4226C4.44938 11.1999 4.98484 11.0533 5.53034 10.9863C5.30847 11.4425 5.1148 11.9157 4.95105 12.4021L4.98194 12.4305H4.93946C3.78087 15.8904 4.60347 19.0602 5.83544 22.5027C5.93971 21.1218 6.07102 19.7998 6.26219 18.5759L5.7833 18.1396L6.32205 18.1069C6.41474 17.5615 6.52152 17.0342 6.64259 16.5253L6.1444 16.0759L6.75845 16.0432C6.8801 15.5916 7.01527 15.1574 7.16589 14.7342L6.6619 14.2761L7.3532 14.2521C7.53992 13.797 7.75812 13.3594 8.00587 12.9432L7.44202 12.4349L8.36503 12.4021C8.98758 11.5238 9.78566 10.8247 10.6938 10.3624L10.7054 10.3667Z" fill="#242424"/>
</svg>
