<svg width="21" height="27" viewBox="0 0 21 27" fill="none" xmlns="http://www.w3.org/2000/svg">
<path fill-rule="evenodd" clip-rule="evenodd" d="M20.6429 3.16806H16.0406L16.0463 3.08396V0.890681C16.0463 0.403287 15.5939 0 15.0422 0C14.4905 0 14.04 0.40113 14.04 0.890681V3.08396L14.0458 3.16806H6.67927L6.685 3.08396V0.890681C6.685 0.403287 6.23259 0 5.68091 0C5.12733 0 4.67683 0.40113 4.67683 0.890681V3.08396L4.68255 3.16806H0.356966C0.160348 3.16806 0 3.34706 0 3.56919V7.76596C0 7.98809 0.160348 8.16925 0.356966 8.17141H20.6429C20.8396 8.17141 20.9999 7.99025 20.9999 7.76812V3.57135C20.9999 3.34922 20.8396 3.16806 20.6429 3.16806ZM6.59528 5.55112C6.59528 6.03852 6.14287 6.4418 5.59119 6.4418H5.58929V6.34044C5.03761 6.34044 4.58711 5.93931 4.58711 5.44976V3.25864L4.59283 3.17022H6.58955L6.59528 3.25864V5.55112ZM15.9585 5.55112C15.9585 6.03852 15.5061 6.4418 14.9544 6.4418L14.9525 6.34044C14.4008 6.34044 13.9503 5.93931 13.9503 5.44976V3.25864L13.956 3.17022H15.9527L15.9585 3.25864V5.55112ZM20.9121 9.09875H0.0897187C0.0400871 9.09875 0 9.14404 0.00190891 9.20011V26.3991C0.00190891 26.453 0.041996 26.4983 0.0897187 26.4983H20.9121C20.9598 26.4983 20.9999 26.453 20.9999 26.3991V9.19795C20.9999 9.14404 20.9617 9.09875 20.9121 9.09875ZM19.7801 24.6652C19.7801 24.7709 19.6942 24.8679 19.6007 24.8679H1.60157C1.50804 24.8679 1.42214 24.7773 1.42214 24.6652V11.2079C1.42214 10.9858 1.58249 10.8068 1.77719 10.8068L1.68748 10.9081H19.6007C19.6999 10.9081 19.7801 11.0052 19.7801 11.1109V24.6652Z" fill="#242424"/>
</svg>
