<svg width="17" height="27" viewBox="0 0 17 27" fill="none" xmlns="http://www.w3.org/2000/svg">
<path fill-rule="evenodd" clip-rule="evenodd" d="M5.40849 21.218C6.2681 22.7649 7.19773 24.6391 8.11568 26.4605C8.45602 27.1329 8.7633 27.2339 9.17172 26.4364C10.0586 24.6984 10.9298 22.8989 11.8478 21.2202C14.6347 16.125 19.1953 11.1572 15.5682 4.29975C12.3476 -1.78864 3.58814 -1.13828 0.968473 4.53045C-2.03433 11.0275 2.65463 16.2656 5.40849 21.218Z" fill="#242424"/>
<path fill-rule="evenodd" clip-rule="evenodd" d="M8.45049 5.62259C10.2611 5.62259 11.7294 7.28145 11.7294 9.32703C11.7294 11.3726 10.2611 13.0315 8.45049 13.0315C6.63986 13.0315 5.17152 11.3726 5.17152 9.32703C5.17152 7.28145 6.63986 5.62259 8.45049 5.62259Z" fill="white"/>
</svg>
