<svg width="42" height="34" viewBox="0 0 42 34" fill="none" xmlns="http://www.w3.org/2000/svg">
<path d="M12.8892 13.6503V31.8813H14.7622L17.23 29.1711H15.9209V27.5156H19.9746L15.4014 22.4535L16.6318 21.3475L19.4004 24.4094V24.2899H26.1782C26.4756 24.2899 26.7388 24.4469 26.8857 24.6824L28.8887 27.5122H32.6519C32.9014 27.5122 33.127 27.6214 33.2773 27.7989L37.3994 31.8813H42V33.7826H0.239258V31.8813H11.1084V13.6503H0.645996C0.290527 13.6503 0 13.3635 0 13.0051C0 12.9846 0 12.9642 0.00341797 12.9403C0.0307617 9.72483 1.37402 6.82001 3.53076 4.71393C5.66016 2.64199 8.5791 1.34147 11.8057 1.2971C11.8672 1.27662 11.9355 1.26638 12.0039 1.26638C12.0723 1.26638 12.1406 1.27662 12.2056 1.2971C15.415 1.35513 18.3135 2.65223 20.4326 4.71734C22.603 6.83708 23.9497 9.76579 23.96 13.0051C23.96 13.3601 23.6729 13.6468 23.3174 13.6468V13.6503H12.8892ZM31.2676 1.44729C31.148 1.24248 31.2197 0.976238 31.4248 0.856768C31.6299 0.737298 31.8965 0.805567 32.0161 1.01379L32.5698 1.97296C32.6895 2.17776 32.6177 2.44401 32.4126 2.56348C32.2075 2.68295 31.9409 2.61127 31.8247 2.40646L31.2676 1.44729ZM34.7129 2.86727C35.7793 2.86727 36.7466 3.29736 37.4438 3.99711C38.1411 4.69345 38.5752 5.65945 38.5752 6.72444C38.5752 7.78942 38.1445 8.75201 37.4438 9.45176C36.7466 10.1515 35.7793 10.5816 34.7129 10.5816C33.6465 10.5816 32.6826 10.1515 31.9819 9.45176C31.2847 8.75542 30.8506 7.78942 30.8506 6.72444C30.8506 5.65945 31.2812 4.69686 31.9819 3.99711C32.6826 3.30078 33.6499 2.86727 34.7129 2.86727ZM34.3711 0.433504C34.3711 0.194565 34.5659 0 34.8052 0C35.0444 0 35.2393 0.194565 35.2393 0.433504V1.53945C35.2393 1.77839 35.0444 1.97296 34.8052 1.97296C34.5659 1.97296 34.3711 1.77839 34.3711 1.53945V0.433504ZM37.5703 1.10595C37.6899 0.901143 37.9531 0.829461 38.1582 0.94893C38.3633 1.0684 38.4351 1.33123 38.3154 1.53604L37.7617 2.49521C37.6421 2.70001 37.3789 2.7717 37.1738 2.65564C36.9688 2.53617 36.897 2.27334 37.0166 2.06853L37.5703 1.10595ZM40.0005 3.28371C40.2056 3.16424 40.4722 3.23592 40.5884 3.44073C40.7046 3.64553 40.6362 3.91178 40.4312 4.03125L39.4741 4.58422C39.269 4.70369 39.0024 4.63201 38.8828 4.4272C38.7632 4.2224 38.835 3.95615 39.04 3.83668L40.0005 3.28371ZM41.0156 6.37968C41.2549 6.37968 41.4497 6.57424 41.4497 6.81318C41.4497 7.05212 41.2549 7.24669 41.0156 7.24669H39.9082C39.6689 7.24669 39.4741 7.05212 39.4741 6.81318C39.4741 6.57424 39.6689 6.37968 39.9082 6.37968H41.0156ZM40.3423 9.57464C40.5474 9.69411 40.6191 9.95694 40.4995 10.1617C40.3799 10.3666 40.1167 10.4382 39.9116 10.3188L38.9512 9.76579C38.7461 9.64632 38.6743 9.38349 38.7939 9.17868C38.9136 8.97388 39.1768 8.9022 39.3818 9.02167L40.3423 9.57464ZM38.1616 12.0016C38.2812 12.2064 38.2095 12.4726 38.0044 12.5921C37.7993 12.7116 37.5327 12.6433 37.4165 12.4351L36.8628 11.4759C36.7432 11.2711 36.8149 11.0049 37.02 10.8854C37.2251 10.7659 37.4917 10.8376 37.6113 11.0424L38.1616 12.0016ZM35.0581 13.0154C35.0581 13.2543 34.8633 13.4489 34.624 13.4489C34.3848 13.4489 34.1934 13.2543 34.1934 13.0154V11.9094C34.1934 11.6705 34.3882 11.4759 34.624 11.4759C34.8633 11.4759 35.0581 11.6705 35.0581 11.9094V13.0154ZM31.8589 12.3429C31.7393 12.5477 31.4761 12.6194 31.271 12.4999C31.0659 12.3805 30.9941 12.1176 31.1138 11.9128L31.6675 10.9537C31.7871 10.7489 32.0503 10.6772 32.2554 10.7932C32.4604 10.9127 32.5322 11.1755 32.4126 11.3803L31.8589 12.3429ZM29.4287 10.1652C29.2236 10.2846 28.957 10.2129 28.8374 10.0081C28.7178 9.80334 28.7896 9.53709 28.9946 9.41762L29.9551 8.86465C30.1602 8.74518 30.4268 8.81686 30.543 9.02167C30.6626 9.22647 30.5908 9.49272 30.3857 9.61219L29.4287 10.1652ZM28.4136 7.06578C28.1743 7.06578 27.9795 6.87121 27.9795 6.63227C27.9795 6.39333 28.1743 6.19877 28.4136 6.19877H29.521C29.7603 6.19877 29.9551 6.39333 29.9551 6.63227C29.9551 6.87121 29.7603 7.06578 29.521 7.06578H28.4136ZM29.0869 3.87423C28.8818 3.75476 28.8101 3.49193 28.9297 3.28712C29.0493 3.08232 29.3125 3.01064 29.5176 3.13011L30.478 3.68308C30.6831 3.80255 30.7549 4.06538 30.6353 4.27019C30.5156 4.47499 30.2524 4.54667 30.0474 4.4272L29.0869 3.87423ZM17.001 31.8847H35.0479L32.3101 29.1745H19.4688L17.001 31.8847ZM22.2065 27.5156H26.8584L25.751 25.9488H20.7915L22.2065 27.5156ZM19.5337 5.63897C18.6587 4.78561 17.6299 4.07562 16.4951 3.5602C16.9326 4.19168 17.3018 4.91191 17.6025 5.70724C18.3032 7.5539 18.645 9.82382 18.6792 12.3634H22.6509C22.48 9.7419 21.3213 7.38322 19.5337 5.63897ZM13.8701 2.7478C13.4702 2.67953 13.0635 2.63175 12.6499 2.60444V12.3634H17.394C17.3633 9.98084 17.0454 7.86452 16.3994 6.16122C15.8252 4.64225 14.9912 3.46462 13.8701 2.7478ZM11.3579 2.60103C10.9512 2.62492 10.5479 2.66929 10.1548 2.73415C9.02002 3.45438 8.17578 4.64225 7.59814 6.1817C6.95898 7.87817 6.64453 9.99108 6.61377 12.36H11.3579V2.60103ZM7.53662 3.52948C6.37451 4.05173 5.32178 4.76855 4.42969 5.64238C2.64209 7.38664 1.4834 9.74531 1.3125 12.3634H5.33203C5.36279 9.83747 5.70459 7.57438 6.39844 5.73113C6.70264 4.91191 7.08203 4.1712 7.53662 3.52948Z" fill="white"/>
</svg>
