<svg width="27" height="22" viewBox="0 0 27 22" fill="none" xmlns="http://www.w3.org/2000/svg">
<path d="M8.28589 8.77517V20.4951H9.48999L11.0764 18.7528H10.2349V17.6886H12.8408L9.90088 14.4344L10.6919 13.7234L12.4717 15.6917V15.6149H16.8289C17.02 15.6149 17.1892 15.7159 17.2837 15.8673L18.5713 17.6864H20.9905C21.1509 17.6864 21.2959 17.7566 21.3926 17.8707L24.0425 20.4951H27V21.7174H0.153809V20.4951H7.14111V8.77517H0.415283C0.186768 8.77517 0 8.59084 0 8.36044C0 8.34727 0 8.33411 0.00219727 8.31875C0.0197754 6.25168 0.883301 4.38429 2.26978 3.03038C3.63867 1.69842 5.51514 0.862376 7.58936 0.833849C7.62891 0.820683 7.67285 0.8141 7.7168 0.8141C7.76074 0.8141 7.80469 0.820683 7.84644 0.833849C9.90967 0.871153 11.7729 1.705 13.1353 3.03258C14.5305 4.39526 15.3962 6.27801 15.4028 8.36044C15.4028 8.58865 15.2183 8.77297 14.9897 8.77297V8.77517H8.28589ZM20.1006 0.9304C20.0237 0.79874 20.0698 0.627581 20.2017 0.55078C20.3335 0.473978 20.5049 0.517864 20.5818 0.651719L20.9377 1.26833C21.0146 1.39999 20.9685 1.57115 20.8367 1.64795C20.7048 1.72475 20.5334 1.67867 20.4587 1.54701L20.1006 0.9304ZM22.3154 1.84325C23.001 1.84325 23.6228 2.11973 24.071 2.56957C24.5193 3.01722 24.7983 3.63822 24.7983 4.32285C24.7983 5.00749 24.5215 5.62629 24.071 6.07613C23.6228 6.52597 23.001 6.80246 22.3154 6.80246C21.6299 6.80246 21.0103 6.52597 20.5598 6.07613C20.1116 5.62848 19.8325 5.00749 19.8325 4.32285C19.8325 3.63822 20.1094 3.01941 20.5598 2.56957C21.0103 2.12193 21.6321 1.84325 22.3154 1.84325ZM22.0957 0.278681C22.0957 0.125077 22.2209 0 22.3748 0C22.5286 0 22.6538 0.125077 22.6538 0.278681V0.989648C22.6538 1.14325 22.5286 1.26833 22.3748 1.26833C22.2209 1.26833 22.0957 1.14325 22.0957 0.989648V0.278681ZM24.1523 0.710966C24.2292 0.579306 24.3984 0.533225 24.5303 0.610027C24.6621 0.686829 24.7083 0.855793 24.6313 0.987453L24.2754 1.60406C24.1985 1.73572 24.0293 1.7818 23.8975 1.7072C23.7656 1.6304 23.7195 1.46143 23.7964 1.32977L24.1523 0.710966ZM25.7146 2.11096C25.8464 2.03415 26.0178 2.08023 26.0925 2.2119C26.1672 2.34356 26.1233 2.51471 25.9915 2.59152L25.3762 2.947C25.2444 3.0238 25.073 2.97772 24.9961 2.84606C24.9192 2.7144 24.9653 2.54324 25.0972 2.46644L25.7146 2.11096ZM26.3672 4.10122C26.521 4.10122 26.6462 4.2263 26.6462 4.3799C26.6462 4.53351 26.521 4.65859 26.3672 4.65859H25.6553C25.5015 4.65859 25.3762 4.53351 25.3762 4.3799C25.3762 4.2263 25.5015 4.10122 25.6553 4.10122H26.3672ZM25.9343 6.15513C26.0662 6.23193 26.1123 6.40089 26.0354 6.53255C25.9585 6.66421 25.7893 6.71029 25.6575 6.63349L25.04 6.27801C24.9082 6.20121 24.8621 6.03224 24.939 5.90058C25.0159 5.76892 25.1851 5.72284 25.3169 5.79964L25.9343 6.15513ZM24.5325 7.7153C24.6094 7.84696 24.5632 8.01812 24.4314 8.09492C24.2996 8.17173 24.1282 8.12784 24.0535 7.99398L23.6975 7.37737C23.6206 7.24571 23.6667 7.07455 23.7986 6.99775C23.9304 6.92095 24.1018 6.96703 24.1787 7.09869L24.5325 7.7153ZM22.5374 8.36702C22.5374 8.52063 22.4121 8.6457 22.2583 8.6457C22.1045 8.6457 21.9814 8.52063 21.9814 8.36702V7.65605C21.9814 7.50245 22.1067 7.37737 22.2583 7.37737C22.4121 7.37737 22.5374 7.50245 22.5374 7.65605V8.36702ZM20.4807 7.93474C20.4038 8.0664 20.2346 8.11248 20.1028 8.03568C19.9709 7.95887 19.9248 7.78991 20.0017 7.65825L20.3577 7.04164C20.4346 6.90998 20.6038 6.8639 20.7356 6.93851C20.8674 7.01531 20.9136 7.18427 20.8367 7.31593L20.4807 7.93474ZM18.9185 6.53475C18.7866 6.61155 18.6152 6.56547 18.5383 6.43381C18.4614 6.30215 18.5076 6.13099 18.6394 6.05419L19.2568 5.6987C19.3887 5.6219 19.5601 5.66798 19.6348 5.79964C19.7117 5.9313 19.6655 6.10246 19.5337 6.17926L18.9185 6.53475ZM18.2659 4.54229C18.1121 4.54229 17.9868 4.41721 17.9868 4.2636C17.9868 4.11 18.1121 3.98492 18.2659 3.98492H18.9778C19.1316 3.98492 19.2568 4.11 19.2568 4.2636C19.2568 4.41721 19.1316 4.54229 18.9778 4.54229H18.2659ZM18.6987 2.49058C18.5669 2.41378 18.5208 2.24481 18.5977 2.11315C18.6746 1.98149 18.8437 1.93541 18.9756 2.01221L19.593 2.36769C19.7249 2.4445 19.771 2.61346 19.6941 2.74512C19.6172 2.87678 19.448 2.92286 19.3162 2.84606L18.6987 2.49058ZM10.9292 20.4973H22.5308L20.7708 18.755H12.5156L10.9292 20.4973ZM14.2756 17.6886H17.2661L16.5542 16.6814H13.366L14.2756 17.6886ZM12.5574 3.62505C11.9949 3.07647 11.3335 2.62004 10.604 2.2887C10.8853 2.69465 11.1226 3.15766 11.3159 3.66894C11.7664 4.85608 11.9861 6.31531 12.0081 7.9479H14.5613C14.4514 6.26265 13.7065 4.74636 12.5574 3.62505ZM8.9165 1.76644C8.65942 1.72256 8.39795 1.69184 8.13208 1.67428V7.9479H11.1819C11.1621 6.41625 10.9578 5.05576 10.5425 3.96078C10.1733 2.9843 9.63721 2.22726 8.9165 1.76644ZM7.30151 1.67209C7.04004 1.68745 6.78076 1.71597 6.52808 1.75767C5.79858 2.22067 5.25586 2.9843 4.88452 3.97395C4.47363 5.06454 4.27148 6.42284 4.25171 7.94571H7.30151V1.67209ZM4.84497 2.26895C4.0979 2.60468 3.42114 3.06549 2.84766 3.62725C1.69849 4.74855 0.953613 6.26484 0.84375 7.9479H3.42773C3.44751 6.32409 3.66724 4.86924 4.11328 3.6843C4.30884 3.15766 4.55273 2.68148 4.84497 2.26895Z" fill="white"/>
</svg>
