<svg width="11" height="20" viewBox="0 0 11 20" fill="none" xmlns="http://www.w3.org/2000/svg">
<path fill-rule="evenodd" clip-rule="evenodd" d="M8.32706 3.37571C8.94744 3.35462 9.56482 3.37269 10.1882 3.36968H10.4412V0.147276C10.1099 0.114149 9.7666 0.0659632 9.41725 0.0509052C8.78181 0.0207893 8.14636 -0.00932665 7.51092 0.00271973C6.53817 0.0238009 5.61963 0.258705 4.81855 0.836931C3.897 1.49948 3.39106 2.43006 3.19831 3.52628C3.12001 3.98104 3.09893 4.44783 3.08688 4.90861C3.06881 5.6344 3.08387 6.35718 3.08387 7.07997V7.35101H0V10.9499H3.0658V19.9997H6.81223V10.9679H9.86899C10.0256 9.76932 10.1792 8.58275 10.3388 7.348H9.65216C8.78181 7.35101 6.78813 7.348 6.78813 7.348C6.78813 7.348 6.79717 5.56513 6.81825 4.78814C6.84836 3.73107 7.47779 3.40582 8.32706 3.37571Z" fill="white"/>
</svg>
