<svg width="20" height="19" viewBox="0 0 20 19" fill="none" xmlns="http://www.w3.org/2000/svg">
<path d="M7.10079 7.44602C8.8006 7.44602 10.1786 6.01041 10.1786 4.2395C10.1786 2.46859 8.8006 1.03299 7.10079 1.03299C5.40097 1.03299 4.023 2.46859 4.023 4.2395C4.023 6.01041 5.40097 7.44602 7.10079 7.44602Z" stroke="black" stroke-width="2" stroke-miterlimit="10" stroke-linecap="round"/>
<path d="M18.9655 4.23888H10.1786" stroke="black" stroke-width="2" stroke-miterlimit="10" stroke-linecap="round"/>
<path d="M4.02243 4.23888H1.03299" stroke="black" stroke-width="2" stroke-miterlimit="10" stroke-linecap="round"/>
<path d="M12.8972 17.8283C14.597 17.8283 15.975 16.3927 15.975 14.6218C15.975 12.8509 14.597 11.4153 12.8972 11.4153C11.1974 11.4153 9.81943 12.8509 9.81943 14.6218C9.81943 16.3927 11.1974 17.8283 12.8972 17.8283Z" stroke="black" stroke-width="2" stroke-miterlimit="10" stroke-linecap="round"/>
<path d="M1.03299 14.6212H9.81995" stroke="black" stroke-width="2" stroke-miterlimit="10" stroke-linecap="round"/>
<path d="M15.977 14.6212H18.9664" stroke="black" stroke-width="2" stroke-miterlimit="10" stroke-linecap="round"/>
</svg>
