<svg width="21" height="20" viewBox="0 0 21 20" fill="none" xmlns="http://www.w3.org/2000/svg">
<path d="M19.848 5.01972C19.7133 3.70038 19.2087 2.53774 18.2278 1.60386C17.1999 0.619845 15.9401 0.187379 14.5581 0.112167C12.2078 -0.0131852 6.62332 -0.0977982 4.66469 0.221851C2.42401 0.588507 0.954251 1.89844 0.333756 4.10778C-0.142584 5.80944 -0.0454354 13.6596 0.23034 15.3394C0.612665 17.6427 1.96961 19.1156 4.25102 19.7048C5.83047 20.1122 13.5867 20.0589 15.3259 19.7768C17.6293 19.4071 19.1116 18.0533 19.7101 15.7781C20.1677 14.0294 20.0047 6.59289 19.848 5.01972ZM18.0053 15.0166C17.739 16.7653 16.5794 17.8433 14.8214 18.0376C13.2075 18.2131 5.99969 18.3134 4.50173 17.8934C3.06958 17.4923 2.25165 16.5083 2.01348 15.0667C1.78471 13.691 1.73144 6.80913 2.01035 4.96958C2.27359 3.23658 3.4331 2.15541 5.18177 1.96112C6.95237 1.76369 13.3328 1.74175 15.0282 1.99872C16.7737 2.26823 17.8549 3.43088 18.0461 5.18895C18.2247 6.8342 18.2748 13.2522 18.0053 15.0166ZM10.0078 4.8693C7.1686 4.86616 4.87465 7.16325 4.87779 10.0056C4.87779 12.8292 7.16547 15.1231 9.9953 15.1294C12.8345 15.1357 15.1348 12.8417 15.1379 10.0056C15.1379 7.16325 12.8439 4.8693 10.0078 4.8693ZM9.97023 13.3181C8.16202 13.3118 6.68913 11.8201 6.68913 9.98682C6.68913 8.15667 8.17456 6.68064 10.0204 6.68064C11.8474 6.68064 13.3234 8.1692 13.3234 10.0119C13.3234 11.8514 11.8349 13.3212 9.97023 13.3181ZM16.5356 4.67813C16.5324 5.34564 16.0028 5.87212 15.3322 5.87212C14.6647 5.87212 14.1382 5.34877 14.1319 4.67813C14.1288 4.00123 14.6678 3.46535 15.3447 3.47162C16.0091 3.47475 16.5387 4.01063 16.5356 4.67813Z" fill="white"/>
</svg>
