<svg width="13" height="21" viewBox="0 0 13 21" fill="none" xmlns="http://www.w3.org/2000/svg">
<path fill-rule="evenodd" clip-rule="evenodd" d="M4.15745 16.3101C4.81822 17.4991 5.53281 18.9398 6.23843 20.3399C6.50005 20.8567 6.73625 20.9344 7.05019 20.3213C7.73189 18.9854 8.40164 17.6021 9.10726 16.3118C11.2495 12.3951 14.7552 8.57637 11.9671 3.30517C9.49146 -1.37491 2.75816 -0.874981 0.744454 3.48251C-1.56376 8.47672 2.04058 12.5032 4.15745 16.3101Z" fill="#242424"/>
<path fill-rule="evenodd" clip-rule="evenodd" d="M6.49634 4.32236C7.88815 4.32236 9.01684 5.59751 9.01684 7.16992C9.01684 8.74233 7.88815 10.0175 6.49634 10.0175C5.10453 10.0175 3.97584 8.74233 3.97584 7.16992C3.97584 5.59751 5.10453 4.32236 6.49634 4.32236Z" fill="white"/>
</svg>
