<svg width="93" height="90" viewBox="0 0 93 90" fill="none" xmlns="http://www.w3.org/2000/svg">
<path d="M63.0108 89.6561C66.4508 87.425 68.4461 83.534 68.2498 79.4383L66.2779 37.7048C66.1427 34.8227 67.5227 32.0788 69.9181 30.4687L83.2247 21.6957C86.5389 19.5238 89.3185 16.6295 91.3542 13.2298L92.6646 11.0176C93.3541 9.82548 92.9465 8.30085 91.7544 7.61134C91.3025 7.35018 90.7802 7.23746 90.2607 7.28818L87.7055 7.56813C83.7704 8.01809 79.9884 9.35391 76.6433 11.4751L63.1554 19.9728C60.7186 21.5454 57.6187 21.6722 55.0616 20.3025L17.8701 1.26855C14.2206 -0.60178 9.85241 -0.392296 6.39918 1.81998C22.0833 10.3807 36.8365 24.3278 42.7622 30.185C43.4526 30.8735 43.4545 31.9905 42.7659 32.6809C42.6767 32.7711 42.5771 32.851 42.471 32.9195L39.8876 30.5739C38.6382 29.4466 36.7388 29.4475 35.4903 30.5748L32.2062 33.6682C31.7468 34.0863 31.4547 34.6565 31.3833 35.2737C31.3071 35.9171 30.9878 36.5071 30.4899 36.9232L29.2424 38.0204L30.939 37.3178C31.4519 37.0773 32.0296 37.0144 32.5829 37.1384L33.4913 37.3347L34.968 37.6531L32.1376 39.4784C30.3236 40.6451 28.6505 42.0194 27.1542 43.5723L19.6643 51.5214L9.97733 44.3754C7.88341 42.7963 4.97319 42.8837 2.97885 44.5868L0 47.0931L14.1285 57.6359L12.0421 59.8585C11.8599 60.037 11.8571 60.3292 12.0346 60.5114C12.1633 60.6429 12.3597 60.6861 12.5315 60.6185L15.4192 59.6387L19.2294 76.9254L22.8113 75.2007C25.1542 74.0546 26.4233 71.4675 25.8954 68.9133L23.3684 56.9558L33.6312 53.4697C35.6623 52.7426 37.6039 51.7863 39.4189 50.6196L42.2502 48.7953L41.9299 50.2711L41.7335 51.1795C41.6189 51.7346 41.3221 52.2353 40.8909 52.6026L39.5503 53.8577L41.0572 53.1691C41.6415 52.8882 42.3113 52.8422 42.9284 53.0385C43.524 53.1935 44.1525 53.1635 44.7302 52.953L48.9039 51.2396C50.4717 50.5942 51.2665 48.8423 50.7207 47.2378L49.6545 43.917C50.4699 43.3872 51.5596 43.6183 52.0894 44.4337C52.1598 44.5417 52.2181 44.6573 52.2633 44.7775C55.1284 52.7088 61.6872 71.8377 63.0108 89.6561Z" fill="white"/>
</svg>
