<svg width="27" height="27" viewBox="0 0 27 27" fill="none" xmlns="http://www.w3.org/2000/svg">
<path fill-rule="evenodd" clip-rule="evenodd" d="M9.63203 17.2885L11.772 23.5926L12.8486 19.8506L12.3213 19.2717C12.084 18.9239 12.0312 18.6202 12.1631 18.3582C12.4487 17.7925 13.0397 17.8982 13.5912 17.8982C14.169 17.8982 14.8853 17.7881 15.0654 18.5145C15.1269 18.7566 15.05 19.012 14.8809 19.2717L14.3536 19.8506L15.4301 23.5926L17.368 17.2885C18.7653 18.5475 22.9024 18.8007 24.4426 19.6613C24.9303 19.9343 25.3698 20.2798 25.7235 20.7465C26.2596 21.4575 26.5891 22.3842 26.6792 23.5618L27 25.6155C26.9209 26.4475 26.4507 26.9274 25.5214 27H13.6H1.47864C0.549272 26.9296 0.0790951 26.4497 0 25.6155L0.320775 23.5618C0.410855 22.3842 0.740418 21.4575 1.27651 20.7465C1.63024 20.2776 2.06966 19.9321 2.55741 19.6613C4.09757 18.8007 8.23468 18.5475 9.63203 17.2885ZM8.66311 8.26588C8.39727 8.27688 8.19733 8.33191 8.06111 8.42436C7.98202 8.47719 7.92489 8.54543 7.88754 8.62467C7.8458 8.71271 7.82822 8.82057 7.83042 8.94604C7.8414 9.31143 8.03255 9.78688 8.39946 10.335L8.40386 10.3438L9.59907 12.25C10.078 13.0138 10.5812 13.793 11.2051 14.3653C11.8049 14.9156 12.5344 15.2876 13.4989 15.2898C14.5425 15.292 15.3071 14.9046 15.9245 14.3235C16.5682 13.7182 17.078 12.8905 17.5789 12.0629L18.9257 9.83971C19.1762 9.26521 19.2685 8.8822 19.2113 8.65548C19.1762 8.52121 19.029 8.45518 18.7785 8.44417C18.7258 8.44197 18.6708 8.44197 18.6137 8.44197C18.5544 8.44417 18.4907 8.44857 18.4248 8.45298C18.3896 8.45518 18.3545 8.45298 18.3215 8.44637C18.2007 8.45298 18.0776 8.44417 17.9524 8.42656L18.4138 6.38168C15.9508 6.35086 14.2657 5.92164 12.2729 4.64496C11.6182 4.22674 11.4205 3.74688 10.7657 3.79311C10.2714 3.88776 9.85613 4.11008 9.52437 4.46666C9.20799 4.80785 8.96851 5.27449 8.81252 5.87101L9.07397 8.28129C8.92896 8.29009 8.79054 8.28569 8.66311 8.26588ZM19.2399 7.83665C19.5716 7.9379 19.7848 8.14922 19.8705 8.4904C19.9671 8.869 19.8617 9.39948 19.5431 10.1259C19.5365 10.1391 19.5299 10.1523 19.5233 10.1655L18.1611 12.4151C17.636 13.2823 17.1021 14.1496 16.3903 14.8187C15.6542 15.5099 14.7446 15.97 13.5033 15.9678C12.3432 15.9656 11.471 15.5209 10.7547 14.865C10.0627 14.231 9.53316 13.4122 9.03003 12.611L7.83481 10.707C7.39759 10.0532 7.17129 9.45671 7.15591 8.96585C7.14932 8.73473 7.18887 8.52562 7.27236 8.34292C7.36244 8.14922 7.49866 7.98853 7.68321 7.86527C7.7689 7.80804 7.86557 7.75741 7.97323 7.71779C7.89633 6.68544 7.86557 5.38235 7.9161 4.29277C7.94247 4.03524 7.9908 3.7755 8.06331 3.51576C8.3687 2.42178 9.13549 1.54132 10.0846 0.935995C10.4186 0.722482 10.7855 0.546389 11.1722 0.405514C13.4681 -0.430929 16.5133 0.0247126 18.1435 1.79005C18.8071 2.50983 19.2245 3.46513 19.3146 4.7264L19.2399 7.83665Z" fill="white"/>
</svg>
