<svg width="42" height="42" viewBox="0 0 42 42" fill="none" xmlns="http://www.w3.org/2000/svg">
<path fill-rule="evenodd" clip-rule="evenodd" d="M14.9832 26.8932L18.312 36.6996L19.9867 30.8787L19.1664 29.9782C18.7973 29.4372 18.7153 28.9647 18.9203 28.5572C19.3646 27.6773 20.284 27.8416 21.1418 27.8416C22.0407 27.8416 23.1549 27.6704 23.4351 28.8003C23.5308 29.177 23.4112 29.5742 23.148 29.9782L22.3278 30.8787L24.0024 36.6996L27.0168 26.8932C29.1905 28.8517 35.626 29.2455 38.0218 30.5843C38.7805 31.0088 39.4641 31.5464 40.0143 32.2723C40.8482 33.3783 41.3609 34.8198 41.501 36.6517L42 39.8463C41.877 41.1406 41.1456 41.887 39.6999 42H21.1555H2.30011C0.854423 41.8904 0.123037 41.144 0 39.8463L0.498983 36.6517C0.639108 34.8198 1.15176 33.3783 1.98568 32.2723C2.53593 31.543 3.21946 31.0054 3.97819 30.5843C6.37399 29.2455 12.8095 28.8517 14.9832 26.8932ZM13.476 12.858C13.0624 12.8752 12.7514 12.9608 12.5395 13.1046C12.4165 13.1867 12.3276 13.2929 12.2695 13.4162C12.2046 13.5531 12.1772 13.7209 12.1806 13.9161C12.1977 14.4845 12.4951 15.224 13.0658 16.0766L13.0727 16.0903L14.9319 19.0555C15.6769 20.2437 16.4596 21.4558 17.4302 22.346C18.3633 23.202 19.4979 23.7807 20.9983 23.7841C22.6217 23.7876 23.8111 23.1849 24.7714 22.281C25.7728 21.3394 26.5657 20.0519 27.3449 18.7645L29.44 15.3062C29.8296 14.4125 29.9731 13.8168 29.8843 13.4641C29.8296 13.2552 29.6006 13.1525 29.211 13.1354C29.129 13.132 29.0435 13.132 28.9547 13.132C28.8624 13.1354 28.7633 13.1422 28.6608 13.1491C28.6061 13.1525 28.5514 13.1491 28.5001 13.1388C28.3121 13.1491 28.1208 13.1354 27.926 13.108L28.6437 9.92706C24.8124 9.87912 22.1911 9.21143 19.0912 7.22549C18.0727 6.57493 17.7652 5.82849 16.7467 5.90039C15.9777 6.04762 15.3318 6.39345 14.8157 6.94815C14.3235 7.47887 13.951 8.20477 13.7084 9.13268L14.1151 12.882C13.8895 12.8957 13.6742 12.8888 13.476 12.858ZM29.9287 12.1903C30.4448 12.3479 30.7763 12.6766 30.9096 13.2073C31.06 13.7962 30.8959 14.6214 30.4004 15.7513C30.3901 15.7719 30.3799 15.7924 30.3696 15.813L28.2506 19.3123C27.4338 20.6614 26.6033 22.0105 25.496 23.0514C24.351 24.1265 22.9361 24.8422 21.0051 24.8387C19.2006 24.8353 17.8438 24.1437 16.7296 23.1233C15.653 22.1372 14.8294 20.8634 14.0467 19.6171L12.1875 16.6553C11.5074 15.6384 11.1553 14.7104 11.1314 13.9469C11.1212 13.5874 11.1827 13.2621 11.3126 12.9779C11.4527 12.6766 11.6646 12.4266 11.9517 12.2349C12.085 12.1458 12.2353 12.0671 12.4028 12.0054C12.2832 10.3996 12.2353 8.37255 12.3139 6.67765C12.355 6.27704 12.4301 5.873 12.5429 5.46896C13.018 3.76722 14.2108 2.3976 15.6872 1.45599C16.2067 1.12386 16.7774 0.849938 17.379 0.6308C20.9504 -0.670334 25.6874 0.0384418 28.2233 2.78452C29.2554 3.90418 29.9048 5.39021 30.0449 7.35218L29.9287 12.1903Z" fill="white"/>
</svg>
