<svg width="17" height="20" viewBox="0 0 17 20" fill="none" xmlns="http://www.w3.org/2000/svg">
<path fill-rule="evenodd" clip-rule="evenodd" d="M7.91262 7.66232C9.10579 11.7708 8.56344 15.7407 7.40167 19.8137H9.74662C10.6315 13.3446 9.87793 10.5357 8.99447 8.009C9.44462 8.33826 9.85609 8.73057 10.219 9.17641L11.2566 8.99097L10.6715 9.76656C10.8095 9.96005 10.9465 10.166 11.0825 10.3841L12.0488 10.2116L11.4508 11.0049C11.5549 11.1887 11.6577 11.3806 11.759 11.5789L12.6453 11.4177L12.0645 12.1884C12.1858 12.4432 12.3057 12.7077 12.427 12.9802L13.1706 12.8479L12.6582 13.5268C12.9265 14.1718 13.192 14.8704 13.4546 15.6229C15.4056 11.5161 14.1682 8.49434 9.53254 6.53361C10.059 6.34738 10.6054 6.24208 11.1567 6.2208L11.5606 5.5984L11.6049 6.22403C11.9219 6.24015 12.2373 6.28385 12.5483 6.35463L12.8851 5.82898L12.9265 6.44977C13.1943 6.52974 13.4577 6.62665 13.7158 6.74001L14.0612 6.20468L14.1126 6.93027C14.3936 7.07475 14.6676 7.23632 14.9332 7.41401L15.3286 6.80128L15.3942 7.73327C15.9585 8.15251 16.4952 8.61753 16.9999 9.12481C15.7525 3.80375 12.1943 2.5267 9.01445 5.5597C9.4469 1.75272 8.05963 0.83847 6.1985 0C6.43257 0.401498 6.64951 0.806221 6.84219 1.22062L7.34886 1.28995L6.99348 1.55923C7.14776 1.91977 7.27935 2.29209 7.3874 2.67343L7.83983 2.72825L7.47303 3.01365C7.61533 3.62283 7.6707 4.25362 7.63716 4.88247C4.76698 1.90591 2.37065 3.0072 0.16556 5.63065C0.603723 5.51455 1.04474 5.41297 1.48576 5.33718L1.68129 4.78573L1.83115 5.28236C2.17069 5.23334 2.51223 5.20432 2.85448 5.19529L3.05001 4.64383L3.21557 5.19368C3.49974 5.20077 3.78333 5.22657 4.06478 5.27107L4.27173 4.67608L4.47583 5.35331C4.7677 5.42442 5.05414 5.52213 5.33217 5.64516L5.59621 4.90021L5.91306 5.95152C6.05578 6.03698 6.18994 6.13212 6.32696 6.23531C3.00577 5.76287 1.14179 7.87678 0 10.6518C0.464709 10.1631 0.959819 9.71254 1.48148 9.30379L1.43866 9.00065L1.63419 9.19092C1.94661 8.9576 2.27502 8.75266 2.61613 8.57819L2.54905 8.09446L2.91014 8.44275C3.28865 8.27812 3.68442 8.16976 4.08762 8.12026C3.92363 8.45742 3.78047 8.80716 3.65944 9.16673L3.68228 9.18769H3.65088C2.79454 11.745 3.40254 14.0879 4.31312 16.6323C4.39019 15.6117 4.48724 14.6345 4.62854 13.7299L4.27458 13.4075L4.67279 13.3833C4.74129 12.9802 4.82022 12.5904 4.90971 12.2142L4.54148 11.8821L4.99534 11.8579C5.08526 11.5241 5.18516 11.2032 5.29649 10.8904L4.92398 10.5518L5.43493 10.5341C5.57295 10.1977 5.73422 9.87427 5.91734 9.56662L5.50058 9.19092L6.1828 9.16673C6.64295 8.51756 7.23283 8.00077 7.90406 7.6591L7.91262 7.66232Z" fill="#242424"/>
</svg>
