<svg width="16" height="16" viewBox="0 0 16 16" fill="none" xmlns="http://www.w3.org/2000/svg">
<path d="M7.71634 0.114368C7.7924 0.0409995 7.89395 0 7.99963 0C8.1053 0 8.20685 0.0409995 8.28291 0.114368L9.57225 1.36174C9.62204 1.41028 9.68341 1.4453 9.75053 1.46346C9.81766 1.48161 9.88831 1.48232 9.95579 1.46549L11.6963 1.02833C11.7992 1.00249 11.9081 1.01773 11.9999 1.07083C12.0918 1.12393 12.1593 1.21071 12.1882 1.31278L12.6802 3.03811C12.6993 3.10465 12.7349 3.16525 12.7839 3.21419C12.8328 3.26314 12.8934 3.29882 12.96 3.3179L14.6865 3.81102C14.7885 3.83995 14.8753 3.9075 14.9284 3.99934C14.9815 4.09118 14.9968 4.20009 14.9709 4.30297L14.5338 6.04347C14.5168 6.11084 14.5173 6.18143 14.5353 6.24855C14.5532 6.31567 14.588 6.3771 14.6363 6.427L15.8849 7.71634C15.9583 7.7924 15.9993 7.89395 15.9993 7.99963C15.9993 8.1053 15.9583 8.20685 15.8849 8.28291L14.6375 9.57225C14.589 9.62204 14.554 9.68341 14.5358 9.75053C14.5176 9.81766 14.5169 9.88831 14.5338 9.95579L14.9709 11.6963C14.9968 11.7992 14.9815 11.9081 14.9284 11.9999C14.8753 12.0918 14.7885 12.1593 14.6865 12.1882L12.9611 12.6802C12.8946 12.6993 12.834 12.7349 12.7851 12.7839C12.7361 12.8328 12.7004 12.8934 12.6814 12.96L12.1882 14.6865C12.1593 14.7885 12.0918 14.8753 11.9999 14.9284C11.9081 14.9815 11.7992 14.9968 11.6963 14.9709L9.95579 14.5338C9.88841 14.5168 9.81782 14.5173 9.7507 14.5353C9.68358 14.5532 9.62215 14.588 9.57225 14.6363L8.28291 15.8849C8.20685 15.9583 8.1053 15.9993 7.99963 15.9993C7.89395 15.9993 7.7924 15.9583 7.71634 15.8849L6.427 14.6375C6.37721 14.589 6.31584 14.554 6.24872 14.5358C6.18159 14.5176 6.11094 14.5169 6.04347 14.5338L4.30297 14.9709C4.20009 14.9968 4.09118 14.9815 3.99934 14.9284C3.9075 14.8753 3.83995 14.7885 3.81102 14.6865L3.31907 12.9611C3.29999 12.8946 3.2643 12.834 3.21536 12.7851C3.16641 12.7361 3.10582 12.7004 3.03928 12.6814L1.31278 12.1882C1.21071 12.1593 1.12393 12.0918 1.07083 11.9999C1.01773 11.9081 1.00249 11.7992 1.02833 11.6963L1.46549 9.95579C1.48246 9.88841 1.48195 9.81782 1.46399 9.7507C1.44604 9.68358 1.41125 9.62215 1.36291 9.57225L0.114368 8.28291C0.0409995 8.20685 0 8.1053 0 7.99963C0 7.89395 0.0409995 7.7924 0.114368 7.71634L1.36174 6.427C1.41028 6.37721 1.4453 6.31584 1.46346 6.24872C1.48161 6.18159 1.48232 6.11094 1.46549 6.04347L1.02833 4.30297C1.00249 4.20009 1.01773 4.09118 1.07083 3.99934C1.12393 3.9075 1.21071 3.83995 1.31278 3.81102L3.03811 3.31907C3.10465 3.29999 3.16525 3.2643 3.21419 3.21536C3.26314 3.16641 3.29882 3.10582 3.3179 3.03928L3.81102 1.31278C3.83995 1.21071 3.9075 1.12393 3.99934 1.07083C4.09118 1.01773 4.20009 1.00249 4.30297 1.02833L6.04347 1.46549C6.11084 1.48246 6.18143 1.48195 6.24855 1.46399C6.31567 1.44604 6.3771 1.41125 6.427 1.36291L7.71634 0.114368Z" fill="#197BFF"/>
</svg>
