<svg width="65" height="65" viewBox="0 0 65 65" fill="none" xmlns="http://www.w3.org/2000/svg">
<path d="M65 32.4998C65 50.4489 50.4494 64.9995 32.5002 64.9995C14.5511 64.9995 0 50.4489 0 32.4998C0 14.5506 14.5511 0 32.5002 0C50.4494 0 65 14.5506 65 32.4998Z" fill="#242424"/>
<path d="M28.3747 23.3619C28.3009 23.1696 28.1319 23.0306 27.9291 22.9935C26.1554 22.6688 24.3997 24.186 23.806 25.7255C23.0548 27.675 23.8113 29.7953 24.6786 31.5777C25.6665 33.609 27.1256 35.368 28.7465 36.9252C28.8803 37.0533 29.015 37.1804 29.1507 37.3061C30.6146 38.7014 32.2865 39.9358 34.1902 40.6556C35.7931 41.2621 38.0234 41.7491 39.6667 41.0621C40.5136 40.7084 41.2644 40.0895 41.7338 39.2964C42.0327 38.7913 42.663 37.1318 41.9532 36.7353C40.6079 35.984 39.2631 35.2328 37.9182 34.4811C37.6797 34.3478 37.3807 34.3969 37.1975 34.5997L35.3166 36.6829C35.1461 36.8719 34.8729 36.929 34.6406 36.8252C31.8161 35.5637 29.6772 33.4224 28.3757 30.7141C28.2676 30.4894 28.3128 30.2205 28.4895 30.0438L29.9867 28.5466C30.1499 28.3834 30.2023 28.1391 30.1195 27.923L28.3747 23.3619Z" fill="white"/>
<path d="M13.5923 51.3552L16.8052 41.2876C15.2247 38.5084 14.3925 35.3655 14.3925 32.1521C14.3925 21.9469 22.6949 13.6445 32.9001 13.6445C43.1053 13.6445 51.4077 21.9469 51.4077 32.1521C51.4077 42.3568 43.1053 50.6592 32.9001 50.6592C29.8662 50.6592 26.8747 49.9108 24.2064 48.4889L13.5923 51.3552ZM24.6339 45.1251L25.199 45.4531C27.5331 46.8079 30.1961 47.5239 32.9001 47.5239C41.3762 47.5239 48.2719 40.6278 48.2719 32.1521C48.2719 23.6759 41.3762 16.7803 32.9001 16.7803C24.424 16.7803 17.5283 23.6759 17.5283 32.1521C17.5283 35.0256 18.329 37.8305 19.8438 40.2631L20.2271 40.8782L18.3285 46.8279L24.6339 45.1251Z" fill="white"/>
</svg>
