<svg width="29" height="20" viewBox="0 0 29 20" fill="none" xmlns="http://www.w3.org/2000/svg">
<path fill-rule="evenodd" clip-rule="evenodd" d="M2.93645 19.4154C1.85629 19.0622 1.13342 18.356 0.747051 17.2883C-0.204322 14.6793 -0.482671 3.76965 1.34114 1.61764C1.96846 0.886453 2.76612 0.454388 3.72996 0.350527C8.64884 -0.17709 23.8583 -0.10231 25.6115 0.529169C26.6335 0.898916 27.3647 1.57194 27.7594 2.59809C28.798 5.29434 28.8354 15.103 27.6223 17.7037C27.2982 18.4058 26.7582 18.9044 26.081 19.2616C24.2489 20.2255 5.35435 20.213 2.93645 19.4154ZM10.7552 14.3012C13.709 12.7682 16.6462 11.2477 19.6125 9.70638C16.6379 8.15261 13.7048 6.62377 10.7552 5.07831V14.3012Z" fill="white"/>
</svg>
